<?xml version="1.0" encoding="UTF-8" standalone="no"?>
<!DOCTYPE svg PUBLIC "-//W3C//DTD SVG 1.1//EN"
 "http://www.w3.org/Graphics/SVG/1.1/DTD/svg11.dtd">
<!-- Generated by graphviz version 2.43.0 (0)
 -->
<!-- Title: include/gpio_manager/board.hpp Pages: 1 -->
<svg width="326pt" height="181pt"
 viewBox="0.00 0.00 325.50 181.00" xmlns="http://www.w3.org/2000/svg" xmlns:xlink="http://www.w3.org/1999/xlink">
<g id="graph0" class="graph" transform="scale(1 1) rotate(0) translate(4 177)">
<title>include/gpio_manager/board.hpp</title>
<!-- Node1 -->
<g id="Node000001" class="node">
<title>Node1</title>
<g id="a_Node000001"><a xlink:title=" ">
<polygon fill="#999999" stroke="#666666" points="217,-173 92,-173 92,-143 217,-143 217,-173"/>
<text text-anchor="start" x="100" y="-161" font-family="Helvetica,sans-Serif" font-size="10.00">include/gpio_manager</text>
<text text-anchor="middle" x="154.5" y="-150" font-family="Helvetica,sans-Serif" font-size="10.00">/board.hpp</text>
</a>
</g>
</g>
<!-- Node2 -->
<g id="Node000002" class="node">
<title>Node2</title>
<g id="a_Node000002"><a xlink:href="linux__gpiod__driver_8hpp.html" target="_top" xlink:title=" ">
<polygon fill="white" stroke="#666666" points="217,-107 92,-107 92,-66 217,-66 217,-107"/>
<text text-anchor="start" x="100" y="-95" font-family="Helvetica,sans-Serif" font-size="10.00">include/gpio_manager</text>
<text text-anchor="start" x="100" y="-84" font-family="Helvetica,sans-Serif" font-size="10.00">/drivers/linux_gpiod</text>
<text text-anchor="middle" x="154.5" y="-73" font-family="Helvetica,sans-Serif" font-size="10.00">_driver.hpp</text>
</a>
</g>
</g>
<!-- Node1&#45;&gt;Node2 -->
<g id="edge1_Node000001_Node000002" class="edge">
<title>Node1&#45;&gt;Node2</title>
<g id="a_edge1_Node000001_Node000002"><a xlink:title=" ">
<path fill="none" stroke="#63b8ff" d="M154.5,-132.91C154.5,-124.47 154.5,-115.1 154.5,-107.07"/>
<polygon fill="#63b8ff" stroke="#63b8ff" points="151,-132.94 154.5,-142.94 158,-132.94 151,-132.94"/>
</a>
</g>
</g>
<!-- Node3 -->
<g id="Node000003" class="node">
<title>Node3</title>
<g id="a_Node000003"><a xlink:href="linux__gpiod__driver_8cpp.html" target="_top" xlink:title=" ">
<polygon fill="white" stroke="#666666" points="127,-30 0,-30 0,0 127,0 127,-30"/>
<text text-anchor="start" x="8" y="-18" font-family="Helvetica,sans-Serif" font-size="10.00">src/drivers/linux_gpiod</text>
<text text-anchor="middle" x="63.5" y="-7" font-family="Helvetica,sans-Serif" font-size="10.00">_driver.cpp</text>
</a>
</g>
</g>
<!-- Node1&#45;&gt;Node3 -->
<g id="edge5_Node000001_Node000003" class="edge">
<title>Node1&#45;&gt;Node3</title>
<g id="a_edge5_Node000001_Node000003"><a xlink:title=" ">
<path fill="none" stroke="#63b8ff" d="M115.55,-137.62C103.26,-129.71 90.75,-119.46 82.5,-107 66.82,-83.32 63.72,-49.19 63.31,-30.17"/>
<polygon fill="#63b8ff" stroke="#63b8ff" points="114.03,-140.79 124.4,-142.97 117.65,-134.8 114.03,-140.79"/>
</a>
</g>
</g>
<!-- Node5 -->
<g id="Node000005" class="node">
<title>Node5</title>
<g id="a_Node000005"><a xlink:href="board_8cpp.html" target="_top" xlink:title=" ">
<polygon fill="white" stroke="#666666" points="317.5,-96 235.5,-96 235.5,-77 317.5,-77 317.5,-96"/>
<text text-anchor="middle" x="276.5" y="-84" font-family="Helvetica,sans-Serif" font-size="10.00">src/board.cpp</text>
</a>
</g>
</g>
<!-- Node1&#45;&gt;Node5 -->
<g id="edge4_Node000001_Node000005" class="edge">
<title>Node1&#45;&gt;Node5</title>
<g id="a_edge4_Node000001_Node000005"><a xlink:title=" ">
<path fill="none" stroke="#63b8ff" d="M188,-137.92C212.03,-124.23 243.25,-106.44 261.46,-96.07"/>
<polygon fill="#63b8ff" stroke="#63b8ff" points="186.15,-134.94 179.19,-142.94 189.61,-141.03 186.15,-134.94"/>
</a>
</g>
</g>
<!-- Node2&#45;&gt;Node3 -->
<g id="edge2_Node000002_Node000003" class="edge">
<title>Node2&#45;&gt;Node3</title>
<g id="a_edge2_Node000002_Node000003"><a xlink:title=" ">
<path fill="none" stroke="#63b8ff" d="M120.71,-59.69C107.56,-49.65 93.01,-38.54 81.88,-30.04"/>
<polygon fill="#63b8ff" stroke="#63b8ff" points="118.59,-62.48 128.67,-65.77 122.84,-56.92 118.59,-62.48"/>
</a>
</g>
</g>
<!-- Node4 -->
<g id="Node000004" class="node">
<title>Node4</title>
<g id="a_Node000004"><a xlink:href="factory__linux_8cpp.html" target="_top" xlink:title=" ">
<polygon fill="white" stroke="#666666" points="263.5,-24.5 145.5,-24.5 145.5,-5.5 263.5,-5.5 263.5,-24.5"/>
<text text-anchor="middle" x="204.5" y="-12.5" font-family="Helvetica,sans-Serif" font-size="10.00">src/factory_linux.cpp</text>
</a>
</g>
</g>
<!-- Node2&#45;&gt;Node4 -->
<g id="edge3_Node000002_Node000004" class="edge">
<title>Node2&#45;&gt;Node4</title>
<g id="a_edge3_Node000002_Node000004"><a xlink:title=" ">
<path fill="none" stroke="#63b8ff" d="M174.63,-57.52C183.04,-45.83 192.22,-33.06 198.15,-24.82"/>
<polygon fill="#63b8ff" stroke="#63b8ff" points="171.69,-55.61 168.69,-65.77 177.38,-59.7 171.69,-55.61"/>
</a>
</g>
</g>
</g>
</svg>
