<?xml version="1.0" encoding="UTF-8" standalone="no"?>
<!DOCTYPE svg PUBLIC "-//W3C//DTD SVG 1.1//EN"
 "http://www.w3.org/Graphics/SVG/1.1/DTD/svg11.dtd">
<!-- Generated by graphviz version 2.43.0 (0)
 -->
<!-- Title: src/board.cpp Pages: 1 -->
<svg width="229pt" height="148pt"
 viewBox="0.00 0.00 229.24 148.00" xmlns="http://www.w3.org/2000/svg" xmlns:xlink="http://www.w3.org/1999/xlink">
<g id="graph0" class="graph" transform="scale(1 1) rotate(0) translate(4 144)">
<title>src/board.cpp</title>
<!-- Node1 -->
<g id="Node000001" class="node">
<title>Node1</title>
<g id="a_Node000001"><a xlink:title=" ">
<polygon fill="#999999" stroke="#666666" points="82.24,-140 0.24,-140 0.24,-121 82.24,-121 82.24,-140"/>
<text text-anchor="middle" x="41.24" y="-128" font-family="Helvetica,sans-Serif" font-size="10.00">src/board.cpp</text>
</a>
</g>
</g>
<!-- Node2 -->
<g id="Node000002" class="node">
<title>Node2</title>
<g id="a_Node000002"><a xlink:title=" ">
<polygon fill="#e0e0e0" stroke="#999999" points="91.24,-19 47.24,-19 47.24,0 91.24,0 91.24,-19"/>
<text text-anchor="middle" x="69.24" y="-7" font-family="Helvetica,sans-Serif" font-size="10.00">string</text>
</a>
</g>
</g>
<!-- Node1&#45;&gt;Node2 -->
<g id="edge1_Node000001_Node000002" class="edge">
<title>Node1&#45;&gt;Node2</title>
<g id="a_edge1_Node000001_Node000002"><a xlink:title=" ">
<path fill="none" stroke="#63b8ff" d="M30.81,-120.87C21.82,-112.7 9.5,-99.55 4.24,-85 -0.29,-72.46 -1.98,-66.79 4.24,-55 11.48,-41.27 25.07,-30.97 37.96,-23.76"/>
<polygon fill="#63b8ff" stroke="#63b8ff" points="39.83,-26.73 47.12,-19.05 36.63,-20.51 39.83,-26.73"/>
</a>
</g>
</g>
<!-- Node3 -->
<g id="Node000003" class="node">
<title>Node3</title>
<g id="a_Node000003"><a xlink:title=" ">
<polygon fill="#e0e0e0" stroke="#999999" points="68.74,-79.5 13.74,-79.5 13.74,-60.5 68.74,-60.5 68.74,-79.5"/>
<text text-anchor="middle" x="41.24" y="-67.5" font-family="Helvetica,sans-Serif" font-size="10.00">fstream</text>
</a>
</g>
</g>
<!-- Node1&#45;&gt;Node3 -->
<g id="edge2_Node000001_Node000003" class="edge">
<title>Node1&#45;&gt;Node3</title>
<g id="a_edge2_Node000001_Node000003"><a xlink:title=" ">
<path fill="none" stroke="#63b8ff" d="M41.24,-120.87C41.24,-112.75 41.24,-100.31 41.24,-89.89"/>
<polygon fill="#63b8ff" stroke="#63b8ff" points="44.74,-89.67 41.24,-79.67 37.74,-89.67 44.74,-89.67"/>
</a>
</g>
</g>
<!-- Node4 -->
<g id="Node000004" class="node">
<title>Node4</title>
<g id="a_Node000004"><a xlink:href="board_8hpp.html" target="_top" xlink:title=" ">
<polygon fill="white" stroke="#666666" points="221.24,-85 87.24,-85 87.24,-55 221.24,-55 221.24,-85"/>
<text text-anchor="start" x="95.24" y="-73" font-family="Helvetica,sans-Serif" font-size="10.00">../include/gpio_manager</text>
<text text-anchor="middle" x="154.24" y="-62" font-family="Helvetica,sans-Serif" font-size="10.00">/board.hpp</text>
</a>
</g>
</g>
<!-- Node1&#45;&gt;Node4 -->
<g id="edge3_Node000001_Node000004" class="edge">
<title>Node1&#45;&gt;Node4</title>
<g id="a_edge3_Node000001_Node000004"><a xlink:title=" ">
<path fill="none" stroke="#63b8ff" d="M57.92,-120.87C73.67,-112.71 97.84,-100.2 118.03,-89.75"/>
<polygon fill="#63b8ff" stroke="#63b8ff" points="119.71,-92.82 126.98,-85.11 116.49,-86.6 119.71,-92.82"/>
</a>
</g>
</g>
<!-- Node4&#45;&gt;Node2 -->
<g id="edge4_Node000004_Node000002" class="edge">
<title>Node4&#45;&gt;Node2</title>
<g id="a_edge4_Node000004_Node000002"><a xlink:title=" ">
<path fill="none" stroke="#63b8ff" d="M133.67,-54.84C120.57,-45.83 103.66,-34.18 90.44,-25.09"/>
<polygon fill="#63b8ff" stroke="#63b8ff" points="92.2,-22.05 81.98,-19.27 88.23,-27.82 92.2,-22.05"/>
</a>
</g>
</g>
</g>
</svg>
