<?xml version="1.0" encoding="UTF-8" standalone="no"?>
<!DOCTYPE svg PUBLIC "-//W3C//DTD SVG 1.1//EN"
 "http://www.w3.org/Graphics/SVG/1.1/DTD/svg11.dtd">
<!-- Generated by graphviz version 2.43.0 (0)
 -->
<!-- Title: gpio_manager::IGpioDriver Pages: 1 -->
<svg width="160pt" height="157pt"
 viewBox="0.00 0.00 160.00 157.00" xmlns="http://www.w3.org/2000/svg" xmlns:xlink="http://www.w3.org/1999/xlink">
<g id="graph0" class="graph" transform="scale(1 1) rotate(0) translate(4 153)">
<title>gpio_manager::IGpioDriver</title>
<!-- Node1 -->
<g id="Node000001" class="node">
<title>Node1</title>
<g id="a_Node000001"><a xlink:title=" ">
<polygon fill="#999999" stroke="transparent" points="152,-149 0,-149 0,0 152,0 152,-149"/>
<text text-anchor="start" x="10" y="-136.5" font-family="Helvetica,sans-Serif" font-size="10.00">gpio_manager::IGpioDriver</text>
<text text-anchor="start" x="74" y="-121.5" font-family="Helvetica,sans-Serif" font-size="10.00"> </text>
<text text-anchor="start" x="4" y="-106.5" font-family="Helvetica,sans-Serif" font-size="10.00">+</text>
<text text-anchor="start" x="17" y="-106.5" font-family="Helvetica,sans-Serif" font-size="10.00">virtual ~IGpioDriver</text>
<text text-anchor="start" x="17" y="-95.5" font-family="Helvetica,sans-Serif" font-size="10.00">()=default</text>
<text text-anchor="start" x="4" y="-80.5" font-family="Helvetica,sans-Serif" font-size="10.00">+</text>
<text text-anchor="start" x="17" y="-80.5" font-family="Helvetica,sans-Serif" font-size="10.00">virtual void set_mode</text>
<text text-anchor="start" x="17" y="-69.5" font-family="Helvetica,sans-Serif" font-size="10.00">(int pin, PinDirection</text>
<text text-anchor="start" x="17" y="-58.5" font-family="Helvetica,sans-Serif" font-size="10.00"> direction)=0</text>
<text text-anchor="start" x="4" y="-43.5" font-family="Helvetica,sans-Serif" font-size="10.00">+</text>
<text text-anchor="start" x="17" y="-43.5" font-family="Helvetica,sans-Serif" font-size="10.00">virtual void write</text>
<text text-anchor="start" x="17" y="-32.5" font-family="Helvetica,sans-Serif" font-size="10.00">(int pin, PinValue value)=0</text>
<text text-anchor="start" x="4" y="-17.5" font-family="Helvetica,sans-Serif" font-size="10.00">+</text>
<text text-anchor="start" x="17" y="-17.5" font-family="Helvetica,sans-Serif" font-size="10.00">virtual PinValue read</text>
<text text-anchor="start" x="17" y="-6.5" font-family="Helvetica,sans-Serif" font-size="10.00">(int pin)=0</text>
<polygon fill="#666666" stroke="#666666" points="0,-131.5 0,-131.5 152,-131.5 152,-131.5 0,-131.5"/>
<polygon fill="#666666" stroke="#666666" points="0,-116.5 0,-116.5 152,-116.5 152,-116.5 0,-116.5"/>
<polygon fill="none" stroke="#666666" points="0,0 0,-149 152,-149 152,0 0,0"/>
</a>
</g>
</g>
</g>
</svg>
