<?xml version="1.0" encoding="UTF-8" standalone="no"?>
<!DOCTYPE svg PUBLIC "-//W3C//DTD SVG 1.1//EN"
 "http://www.w3.org/Graphics/SVG/1.1/DTD/svg11.dtd">
<!-- Generated by graphviz version 2.43.0 (0)
 -->
<!-- Title: include/gpio_manager/gpio.hpp Pages: 1 -->
<svg width="362pt" height="159pt"
 viewBox="0.00 0.00 362.00 159.00" xmlns="http://www.w3.org/2000/svg" xmlns:xlink="http://www.w3.org/1999/xlink">
<g id="graph0" class="graph" transform="scale(1 1) rotate(0) translate(4 155)">
<title>include/gpio_manager/gpio.hpp</title>
<!-- Node1 -->
<g id="Node000001" class="node">
<title>Node1</title>
<g id="a_Node000001"><a xlink:title=" ">
<polygon fill="#999999" stroke="#666666" points="207.5,-151 82.5,-151 82.5,-121 207.5,-121 207.5,-151"/>
<text text-anchor="start" x="90.5" y="-139" font-family="Helvetica,sans-Serif" font-size="10.00">include/gpio_manager</text>
<text text-anchor="middle" x="145" y="-128" font-family="Helvetica,sans-Serif" font-size="10.00">/gpio.hpp</text>
</a>
</g>
</g>
<!-- Node2 -->
<g id="Node000002" class="node">
<title>Node2</title>
<g id="a_Node000002"><a xlink:title=" ">
<polygon fill="#e0e0e0" stroke="#999999" points="58,-79.5 0,-79.5 0,-60.5 58,-60.5 58,-79.5"/>
<text text-anchor="middle" x="29" y="-67.5" font-family="Helvetica,sans-Serif" font-size="10.00">memory</text>
</a>
</g>
</g>
<!-- Node1&#45;&gt;Node2 -->
<g id="edge1_Node000001_Node000002" class="edge">
<title>Node1&#45;&gt;Node2</title>
<g id="a_edge1_Node000001_Node000002"><a xlink:title=" ">
<path fill="none" stroke="#63b8ff" d="M119.54,-120.95C99.83,-110.08 72.69,-95.11 53.28,-84.4"/>
<polygon fill="#63b8ff" stroke="#63b8ff" points="54.88,-81.28 44.44,-79.52 51.5,-87.41 54.88,-81.28"/>
</a>
</g>
</g>
<!-- Node3 -->
<g id="Node000003" class="node">
<title>Node3</title>
<g id="a_Node000003"><a xlink:href="igpio__driver_8hpp.html" target="_top" xlink:title=" ">
<polygon fill="white" stroke="#666666" points="213.5,-79.5 76.5,-79.5 76.5,-60.5 213.5,-60.5 213.5,-79.5"/>
<text text-anchor="middle" x="145" y="-67.5" font-family="Helvetica,sans-Serif" font-size="10.00">./drivers/igpio_driver.hpp</text>
</a>
</g>
</g>
<!-- Node1&#45;&gt;Node3 -->
<g id="edge2_Node000001_Node000003" class="edge">
<title>Node1&#45;&gt;Node3</title>
<g id="a_edge2_Node000001_Node000003"><a xlink:title=" ">
<path fill="none" stroke="#63b8ff" d="M145,-120.8C145,-111.7 145,-99.79 145,-89.9"/>
<polygon fill="#63b8ff" stroke="#63b8ff" points="148.5,-89.84 145,-79.84 141.5,-89.84 148.5,-89.84"/>
</a>
</g>
</g>
<!-- Node5 -->
<g id="Node000005" class="node">
<title>Node5</title>
<g id="a_Node000005"><a xlink:href="igpio__named__driver_8hpp.html" target="_top" xlink:title=" ">
<polygon fill="white" stroke="#666666" points="354,-85 232,-85 232,-55 354,-55 354,-85"/>
<text text-anchor="start" x="240" y="-73" font-family="Helvetica,sans-Serif" font-size="10.00">./drivers/igpio_named</text>
<text text-anchor="middle" x="293" y="-62" font-family="Helvetica,sans-Serif" font-size="10.00">_driver.hpp</text>
</a>
</g>
</g>
<!-- Node1&#45;&gt;Node5 -->
<g id="edge4_Node000001_Node000005" class="edge">
<title>Node1&#45;&gt;Node5</title>
<g id="a_edge4_Node000001_Node000005"><a xlink:title=" ">
<path fill="none" stroke="#63b8ff" d="M177.48,-120.95C199.17,-111.58 227.89,-99.16 251.27,-89.05"/>
<polygon fill="#63b8ff" stroke="#63b8ff" points="252.81,-92.19 260.6,-85.01 250.03,-85.77 252.81,-92.19"/>
</a>
</g>
</g>
<!-- Node4 -->
<g id="Node000004" class="node">
<title>Node4</title>
<g id="a_Node000004"><a xlink:href="gpio__types_8hpp.html" target="_top" xlink:title="GPIO Manager Types of pins modes and values.">
<polygon fill="white" stroke="#666666" points="224,-19 124,-19 124,0 224,0 224,-19"/>
<text text-anchor="middle" x="174" y="-7" font-family="Helvetica,sans-Serif" font-size="10.00">../gpio_types.hpp</text>
</a>
</g>
</g>
<!-- Node3&#45;&gt;Node4 -->
<g id="edge3_Node000003_Node000004" class="edge">
<title>Node3&#45;&gt;Node4</title>
<g id="a_edge3_Node000003_Node000004"><a xlink:title=" ">
<path fill="none" stroke="#63b8ff" d="M149.28,-60.37C153.43,-51.99 159.87,-39.01 165.13,-28.39"/>
<polygon fill="#63b8ff" stroke="#63b8ff" points="168.4,-29.68 169.7,-19.17 162.13,-26.57 168.4,-29.68"/>
</a>
</g>
</g>
<!-- Node5&#45;&gt;Node4 -->
<g id="edge6_Node000005_Node000004" class="edge">
<title>Node5&#45;&gt;Node4</title>
<g id="a_edge6_Node000005_Node000004"><a xlink:title=" ">
<path fill="none" stroke="#63b8ff" d="M264.5,-54.99C245.09,-45.45 219.57,-32.9 200.58,-23.57"/>
<polygon fill="#63b8ff" stroke="#63b8ff" points="202.09,-20.41 191.57,-19.14 199,-26.69 202.09,-20.41"/>
</a>
</g>
</g>
<!-- Node6 -->
<g id="Node000006" class="node">
<title>Node6</title>
<g id="a_Node000006"><a xlink:title=" ">
<polygon fill="#e0e0e0" stroke="#999999" points="315,-19 271,-19 271,0 315,0 315,-19"/>
<text text-anchor="middle" x="293" y="-7" font-family="Helvetica,sans-Serif" font-size="10.00">string</text>
</a>
</g>
</g>
<!-- Node5&#45;&gt;Node6 -->
<g id="edge5_Node000005_Node000006" class="edge">
<title>Node5&#45;&gt;Node6</title>
<g id="a_edge5_Node000005_Node000006"><a xlink:title=" ">
<path fill="none" stroke="#63b8ff" d="M293,-54.84C293,-47.21 293,-37.7 293,-29.45"/>
<polygon fill="#63b8ff" stroke="#63b8ff" points="296.5,-29.27 293,-19.27 289.5,-29.27 296.5,-29.27"/>
</a>
</g>
</g>
</g>
</svg>
