<?xml version="1.0" encoding="UTF-8" standalone="no"?>
<!DOCTYPE svg PUBLIC "-//W3C//DTD SVG 1.1//EN"
 "http://www.w3.org/Graphics/SVG/1.1/DTD/svg11.dtd">
<!-- Generated by graphviz version 2.43.0 (0)
 -->
<!-- Title: src/gpio.cpp Pages: 1 -->
<svg width="368pt" height="214pt"
 viewBox="0.00 0.00 367.50 214.00" xmlns="http://www.w3.org/2000/svg" xmlns:xlink="http://www.w3.org/1999/xlink">
<g id="graph0" class="graph" transform="scale(1 1) rotate(0) translate(4 210)">
<title>src/gpio.cpp</title>
<!-- Node1 -->
<g id="Node000001" class="node">
<title>Node1</title>
<g id="a_Node000001"><a xlink:title=" ">
<polygon fill="#999999" stroke="#666666" points="129,-206 54,-206 54,-187 129,-187 129,-206"/>
<text text-anchor="middle" x="91.5" y="-194" font-family="Helvetica,sans-Serif" font-size="10.00">src/gpio.cpp</text>
</a>
</g>
</g>
<!-- Node2 -->
<g id="Node000002" class="node">
<title>Node2</title>
<g id="a_Node000002"><a xlink:title=" ">
<polygon fill="#e0e0e0" stroke="#999999" points="65,-145.5 0,-145.5 0,-126.5 65,-126.5 65,-145.5"/>
<text text-anchor="middle" x="32.5" y="-133.5" font-family="Helvetica,sans-Serif" font-size="10.00">stdexcept</text>
</a>
</g>
</g>
<!-- Node1&#45;&gt;Node2 -->
<g id="edge1_Node000001_Node000002" class="edge">
<title>Node1&#45;&gt;Node2</title>
<g id="a_edge1_Node000001_Node000002"><a xlink:title=" ">
<path fill="none" stroke="#63b8ff" d="M82.79,-186.87C73.82,-177.97 59.62,-163.89 48.59,-152.95"/>
<polygon fill="#63b8ff" stroke="#63b8ff" points="50.81,-150.22 41.24,-145.67 45.88,-155.19 50.81,-150.22"/>
</a>
</g>
</g>
<!-- Node3 -->
<g id="Node000003" class="node">
<title>Node3</title>
<g id="a_Node000003"><a xlink:href="gpio_8hpp.html" target="_top" xlink:title=" ">
<polygon fill="white" stroke="#666666" points="217.5,-151 83.5,-151 83.5,-121 217.5,-121 217.5,-151"/>
<text text-anchor="start" x="91.5" y="-139" font-family="Helvetica,sans-Serif" font-size="10.00">../include/gpio_manager</text>
<text text-anchor="middle" x="150.5" y="-128" font-family="Helvetica,sans-Serif" font-size="10.00">/gpio.hpp</text>
</a>
</g>
</g>
<!-- Node1&#45;&gt;Node3 -->
<g id="edge2_Node000001_Node000003" class="edge">
<title>Node1&#45;&gt;Node3</title>
<g id="a_edge2_Node000001_Node000003"><a xlink:title=" ">
<path fill="none" stroke="#63b8ff" d="M100.21,-186.87C107.77,-179.37 119.04,-168.2 128.99,-158.33"/>
<polygon fill="#63b8ff" stroke="#63b8ff" points="131.63,-160.64 136.26,-151.11 126.7,-155.67 131.63,-160.64"/>
</a>
</g>
</g>
<!-- Node4 -->
<g id="Node000004" class="node">
<title>Node4</title>
<g id="a_Node000004"><a xlink:title=" ">
<polygon fill="#e0e0e0" stroke="#999999" points="63.5,-79.5 5.5,-79.5 5.5,-60.5 63.5,-60.5 63.5,-79.5"/>
<text text-anchor="middle" x="34.5" y="-67.5" font-family="Helvetica,sans-Serif" font-size="10.00">memory</text>
</a>
</g>
</g>
<!-- Node3&#45;&gt;Node4 -->
<g id="edge3_Node000003_Node000004" class="edge">
<title>Node3&#45;&gt;Node4</title>
<g id="a_edge3_Node000003_Node000004"><a xlink:title=" ">
<path fill="none" stroke="#63b8ff" d="M125.04,-120.95C105.33,-110.08 78.19,-95.11 58.78,-84.4"/>
<polygon fill="#63b8ff" stroke="#63b8ff" points="60.38,-81.28 49.94,-79.52 57,-87.41 60.38,-81.28"/>
</a>
</g>
</g>
<!-- Node5 -->
<g id="Node000005" class="node">
<title>Node5</title>
<g id="a_Node000005"><a xlink:href="igpio__driver_8hpp.html" target="_top" xlink:title=" ">
<polygon fill="white" stroke="#666666" points="219,-79.5 82,-79.5 82,-60.5 219,-60.5 219,-79.5"/>
<text text-anchor="middle" x="150.5" y="-67.5" font-family="Helvetica,sans-Serif" font-size="10.00">./drivers/igpio_driver.hpp</text>
</a>
</g>
</g>
<!-- Node3&#45;&gt;Node5 -->
<g id="edge4_Node000003_Node000005" class="edge">
<title>Node3&#45;&gt;Node5</title>
<g id="a_edge4_Node000003_Node000005"><a xlink:title=" ">
<path fill="none" stroke="#63b8ff" d="M150.5,-120.8C150.5,-111.7 150.5,-99.79 150.5,-89.9"/>
<polygon fill="#63b8ff" stroke="#63b8ff" points="154,-89.84 150.5,-79.84 147,-89.84 154,-89.84"/>
</a>
</g>
</g>
<!-- Node7 -->
<g id="Node000007" class="node">
<title>Node7</title>
<g id="a_Node000007"><a xlink:href="igpio__named__driver_8hpp.html" target="_top" xlink:title=" ">
<polygon fill="white" stroke="#666666" points="359.5,-85 237.5,-85 237.5,-55 359.5,-55 359.5,-85"/>
<text text-anchor="start" x="245.5" y="-73" font-family="Helvetica,sans-Serif" font-size="10.00">./drivers/igpio_named</text>
<text text-anchor="middle" x="298.5" y="-62" font-family="Helvetica,sans-Serif" font-size="10.00">_driver.hpp</text>
</a>
</g>
</g>
<!-- Node3&#45;&gt;Node7 -->
<g id="edge6_Node000003_Node000007" class="edge">
<title>Node3&#45;&gt;Node7</title>
<g id="a_edge6_Node000003_Node000007"><a xlink:title=" ">
<path fill="none" stroke="#63b8ff" d="M182.98,-120.95C204.67,-111.58 233.39,-99.16 256.77,-89.05"/>
<polygon fill="#63b8ff" stroke="#63b8ff" points="258.31,-92.19 266.1,-85.01 255.53,-85.77 258.31,-92.19"/>
</a>
</g>
</g>
<!-- Node6 -->
<g id="Node000006" class="node">
<title>Node6</title>
<g id="a_Node000006"><a xlink:href="gpio__types_8hpp.html" target="_top" xlink:title="GPIO Manager Types of pins modes and values.">
<polygon fill="white" stroke="#666666" points="229.5,-19 129.5,-19 129.5,0 229.5,0 229.5,-19"/>
<text text-anchor="middle" x="179.5" y="-7" font-family="Helvetica,sans-Serif" font-size="10.00">../gpio_types.hpp</text>
</a>
</g>
</g>
<!-- Node5&#45;&gt;Node6 -->
<g id="edge5_Node000005_Node000006" class="edge">
<title>Node5&#45;&gt;Node6</title>
<g id="a_edge5_Node000005_Node000006"><a xlink:title=" ">
<path fill="none" stroke="#63b8ff" d="M154.78,-60.37C158.93,-51.99 165.37,-39.01 170.63,-28.39"/>
<polygon fill="#63b8ff" stroke="#63b8ff" points="173.9,-29.68 175.2,-19.17 167.63,-26.57 173.9,-29.68"/>
</a>
</g>
</g>
<!-- Node7&#45;&gt;Node6 -->
<g id="edge8_Node000007_Node000006" class="edge">
<title>Node7&#45;&gt;Node6</title>
<g id="a_edge8_Node000007_Node000006"><a xlink:title=" ">
<path fill="none" stroke="#63b8ff" d="M270,-54.99C250.59,-45.45 225.07,-32.9 206.08,-23.57"/>
<polygon fill="#63b8ff" stroke="#63b8ff" points="207.59,-20.41 197.07,-19.14 204.5,-26.69 207.59,-20.41"/>
</a>
</g>
</g>
<!-- Node8 -->
<g id="Node000008" class="node">
<title>Node8</title>
<g id="a_Node000008"><a xlink:title=" ">
<polygon fill="#e0e0e0" stroke="#999999" points="320.5,-19 276.5,-19 276.5,0 320.5,0 320.5,-19"/>
<text text-anchor="middle" x="298.5" y="-7" font-family="Helvetica,sans-Serif" font-size="10.00">string</text>
</a>
</g>
</g>
<!-- Node7&#45;&gt;Node8 -->
<g id="edge7_Node000007_Node000008" class="edge">
<title>Node7&#45;&gt;Node8</title>
<g id="a_edge7_Node000007_Node000008"><a xlink:title=" ">
<path fill="none" stroke="#63b8ff" d="M298.5,-54.84C298.5,-47.21 298.5,-37.7 298.5,-29.45"/>
<polygon fill="#63b8ff" stroke="#63b8ff" points="302,-29.27 298.5,-19.27 295,-29.27 302,-29.27"/>
</a>
</g>
</g>
</g>
</svg>
