<?xml version="1.0" encoding="UTF-8" standalone="no"?>
<!DOCTYPE svg PUBLIC "-//W3C//DTD SVG 1.1//EN"
 "http://www.w3.org/Graphics/SVG/1.1/DTD/svg11.dtd">
<!-- Generated by graphviz version 2.43.0 (0)
 -->
<!-- Title: include/gpio_manager/gpio_types.hpp Pages: 1 -->
<svg width="424pt" height="313pt"
 viewBox="0.00 0.00 424.23 313.00" xmlns="http://www.w3.org/2000/svg" xmlns:xlink="http://www.w3.org/1999/xlink">
<g id="graph0" class="graph" transform="scale(1 1) rotate(0) translate(4 309)">
<title>include/gpio_manager/gpio_types.hpp</title>
<!-- Node1 -->
<g id="Node000001" class="node">
<title>Node1</title>
<g id="a_Node000001"><a xlink:title="GPIO Manager Types of pins modes and values.">
<polygon fill="#999999" stroke="#666666" points="214.23,-305 89.23,-305 89.23,-275 214.23,-275 214.23,-305"/>
<text text-anchor="start" x="97.23" y="-293" font-family="Helvetica,sans-Serif" font-size="10.00">include/gpio_manager</text>
<text text-anchor="middle" x="151.73" y="-282" font-family="Helvetica,sans-Serif" font-size="10.00">/gpio_types.hpp</text>
</a>
</g>
</g>
<!-- Node2 -->
<g id="Node000002" class="node">
<title>Node2</title>
<g id="a_Node000002"><a xlink:href="igpio__driver_8hpp.html" target="_top" xlink:title=" ">
<polygon fill="white" stroke="#666666" points="144.73,-233.5 10.73,-233.5 10.73,-203.5 144.73,-203.5 144.73,-233.5"/>
<text text-anchor="start" x="18.73" y="-221.5" font-family="Helvetica,sans-Serif" font-size="10.00">include/gpio_manager</text>
<text text-anchor="middle" x="77.73" y="-210.5" font-family="Helvetica,sans-Serif" font-size="10.00">/drivers/igpio_driver.hpp</text>
</a>
</g>
</g>
<!-- Node1&#45;&gt;Node2 -->
<g id="edge1_Node000001_Node000002" class="edge">
<title>Node1&#45;&gt;Node2</title>
<g id="a_edge1_Node000001_Node000002"><a xlink:title=" ">
<path fill="none" stroke="#63b8ff" d="M129.36,-267.99C117.48,-256.84 103.21,-243.43 92.68,-233.54"/>
<polygon fill="#63b8ff" stroke="#63b8ff" points="127.07,-270.64 136.75,-274.94 131.86,-265.54 127.07,-270.64"/>
</a>
</g>
</g>
<!-- Node10 -->
<g id="Node000010" class="node">
<title>Node10</title>
<g id="a_Node000010"><a xlink:href="igpio__named__driver_8hpp.html" target="_top" xlink:title=" ">
<polygon fill="white" stroke="#666666" points="288.23,-239 163.23,-239 163.23,-198 288.23,-198 288.23,-239"/>
<text text-anchor="start" x="171.23" y="-227" font-family="Helvetica,sans-Serif" font-size="10.00">include/gpio_manager</text>
<text text-anchor="start" x="171.23" y="-216" font-family="Helvetica,sans-Serif" font-size="10.00">/drivers/igpio_named</text>
<text text-anchor="middle" x="225.73" y="-205" font-family="Helvetica,sans-Serif" font-size="10.00">_driver.hpp</text>
</a>
</g>
</g>
<!-- Node1&#45;&gt;Node10 -->
<g id="edge11_Node000001_Node000010" class="edge">
<title>Node1&#45;&gt;Node10</title>
<g id="a_edge11_Node000001_Node000010"><a xlink:title=" ">
<path fill="none" stroke="#63b8ff" d="M174.13,-267.96C183.9,-258.78 195.3,-248.08 204.89,-239.07"/>
<polygon fill="#63b8ff" stroke="#63b8ff" points="171.6,-265.54 166.7,-274.94 176.39,-270.64 171.6,-265.54"/>
</a>
</g>
</g>
<!-- Node3 -->
<g id="Node000003" class="node">
<title>Node3</title>
<g id="a_Node000003"><a xlink:href="linux__gpiod__driver_8hpp.html" target="_top" xlink:title=" ">
<polygon fill="white" stroke="#666666" points="140.23,-162 15.23,-162 15.23,-121 140.23,-121 140.23,-162"/>
<text text-anchor="start" x="23.23" y="-150" font-family="Helvetica,sans-Serif" font-size="10.00">include/gpio_manager</text>
<text text-anchor="start" x="23.23" y="-139" font-family="Helvetica,sans-Serif" font-size="10.00">/drivers/linux_gpiod</text>
<text text-anchor="middle" x="77.73" y="-128" font-family="Helvetica,sans-Serif" font-size="10.00">_driver.hpp</text>
</a>
</g>
</g>
<!-- Node2&#45;&gt;Node3 -->
<g id="edge2_Node000002_Node000003" class="edge">
<title>Node2&#45;&gt;Node3</title>
<g id="a_edge2_Node000002_Node000003"><a xlink:title=" ">
<path fill="none" stroke="#63b8ff" d="M77.73,-193.23C77.73,-183.2 77.73,-171.71 77.73,-162.2"/>
<polygon fill="#63b8ff" stroke="#63b8ff" points="74.23,-193.39 77.73,-203.39 81.23,-193.39 74.23,-193.39"/>
</a>
</g>
</g>
<!-- Node6 -->
<g id="Node000006" class="node">
<title>Node6</title>
<g id="a_Node000006"><a xlink:href="gpio_8hpp.html" target="_top" xlink:title=" ">
<polygon fill="white" stroke="#666666" points="288.23,-156.5 163.23,-156.5 163.23,-126.5 288.23,-126.5 288.23,-156.5"/>
<text text-anchor="start" x="171.23" y="-144.5" font-family="Helvetica,sans-Serif" font-size="10.00">include/gpio_manager</text>
<text text-anchor="middle" x="225.73" y="-133.5" font-family="Helvetica,sans-Serif" font-size="10.00">/gpio.hpp</text>
</a>
</g>
</g>
<!-- Node2&#45;&gt;Node6 -->
<g id="edge5_Node000002_Node000006" class="edge">
<title>Node2&#45;&gt;Node6</title>
<g id="a_edge5_Node000002_Node000006"><a xlink:title=" ">
<path fill="none" stroke="#63b8ff" d="M114.68,-198.77C140.52,-185.68 174.49,-168.47 198.01,-156.54"/>
<polygon fill="#63b8ff" stroke="#63b8ff" points="112.9,-195.75 105.57,-203.39 116.07,-201.99 112.9,-195.75"/>
</a>
</g>
</g>
<!-- Node4 -->
<g id="Node000004" class="node">
<title>Node4</title>
<g id="a_Node000004"><a xlink:href="linux__gpiod__driver_8cpp.html" target="_top" xlink:title=" ">
<polygon fill="white" stroke="#666666" points="141.23,-85 14.23,-85 14.23,-55 141.23,-55 141.23,-85"/>
<text text-anchor="start" x="22.23" y="-73" font-family="Helvetica,sans-Serif" font-size="10.00">src/drivers/linux_gpiod</text>
<text text-anchor="middle" x="77.73" y="-62" font-family="Helvetica,sans-Serif" font-size="10.00">_driver.cpp</text>
</a>
</g>
</g>
<!-- Node3&#45;&gt;Node4 -->
<g id="edge3_Node000003_Node000004" class="edge">
<title>Node3&#45;&gt;Node4</title>
<g id="a_edge3_Node000003_Node000004"><a xlink:title=" ">
<path fill="none" stroke="#63b8ff" d="M77.73,-110.66C77.73,-101.76 77.73,-92.42 77.73,-85.04"/>
<polygon fill="#63b8ff" stroke="#63b8ff" points="74.23,-110.77 77.73,-120.77 81.23,-110.77 74.23,-110.77"/>
</a>
</g>
</g>
<!-- Node5 -->
<g id="Node000005" class="node">
<title>Node5</title>
<g id="a_Node000005"><a xlink:href="factory__linux_8cpp.html" target="_top" xlink:title=" ">
<polygon fill="white" stroke="#666666" points="135.73,-19 17.73,-19 17.73,0 135.73,0 135.73,-19"/>
<text text-anchor="middle" x="76.73" y="-7" font-family="Helvetica,sans-Serif" font-size="10.00">src/factory_linux.cpp</text>
</a>
</g>
</g>
<!-- Node3&#45;&gt;Node5 -->
<g id="edge4_Node000003_Node000005" class="edge">
<title>Node3&#45;&gt;Node5</title>
<g id="a_edge4_Node000003_Node000005"><a xlink:title=" ">
<path fill="none" stroke="#63b8ff" d="M31.07,-115.13C20.49,-107 10.65,-96.93 4.73,-85 -1.2,-73.05 -1.77,-66.65 4.73,-55 14.53,-37.42 34.46,-25.91 50.87,-19.01"/>
<polygon fill="#63b8ff" stroke="#63b8ff" points="29.08,-118.01 39.25,-120.98 33.15,-112.32 29.08,-118.01"/>
</a>
</g>
</g>
<!-- Node7 -->
<g id="Node000007" class="node">
<title>Node7</title>
<g id="a_Node000007"><a xlink:href="libgpio__manager_8hpp.html" target="_top" xlink:title=" ">
<polygon fill="white" stroke="#666666" points="284.23,-85 159.23,-85 159.23,-55 284.23,-55 284.23,-85"/>
<text text-anchor="start" x="167.23" y="-73" font-family="Helvetica,sans-Serif" font-size="10.00">include/gpio_manager</text>
<text text-anchor="middle" x="221.73" y="-62" font-family="Helvetica,sans-Serif" font-size="10.00">/libgpio_manager.hpp</text>
</a>
</g>
</g>
<!-- Node6&#45;&gt;Node7 -->
<g id="edge6_Node000006_Node000007" class="edge">
<title>Node6&#45;&gt;Node7</title>
<g id="a_edge6_Node000006_Node000007"><a xlink:title=" ">
<path fill="none" stroke="#63b8ff" d="M224.33,-116.25C223.73,-105.81 223.05,-93.99 222.54,-85.04"/>
<polygon fill="#63b8ff" stroke="#63b8ff" points="220.85,-116.65 224.92,-126.44 227.84,-116.25 220.85,-116.65"/>
</a>
</g>
</g>
<!-- Node8 -->
<g id="Node000008" class="node">
<title>Node8</title>
<g id="a_Node000008"><a xlink:href="gpio__c__api_8cpp.html" target="_top" xlink:title=" ">
<polygon fill="white" stroke="#666666" points="333.73,-19 199.73,-19 199.73,0 333.73,0 333.73,-19"/>
<text text-anchor="middle" x="266.73" y="-7" font-family="Helvetica,sans-Serif" font-size="10.00">src/c_api/gpio_c_api.cpp</text>
</a>
</g>
</g>
<!-- Node6&#45;&gt;Node8 -->
<g id="edge9_Node000006_Node000008" class="edge">
<title>Node6&#45;&gt;Node8</title>
<g id="a_edge9_Node000006_Node000008"><a xlink:title=" ">
<path fill="none" stroke="#63b8ff" d="M261.41,-120.6C274.04,-111.53 286.83,-99.54 293.73,-85 304.58,-62.13 285.88,-33.65 274.51,-19.44"/>
<polygon fill="#63b8ff" stroke="#63b8ff" points="259.11,-117.93 252.76,-126.41 263.01,-123.74 259.11,-117.93"/>
</a>
</g>
</g>
<!-- Node9 -->
<g id="Node000009" class="node">
<title>Node9</title>
<g id="a_Node000009"><a xlink:href="gpio_8cpp.html" target="_top" xlink:title=" ">
<polygon fill="white" stroke="#666666" points="416.23,-79.5 341.23,-79.5 341.23,-60.5 416.23,-60.5 416.23,-79.5"/>
<text text-anchor="middle" x="378.73" y="-67.5" font-family="Helvetica,sans-Serif" font-size="10.00">src/gpio.cpp</text>
</a>
</g>
</g>
<!-- Node6&#45;&gt;Node9 -->
<g id="edge10_Node000006_Node000009" class="edge">
<title>Node6&#45;&gt;Node9</title>
<g id="a_edge10_Node000006_Node000009"><a xlink:title=" ">
<path fill="none" stroke="#63b8ff" d="M266.16,-122.13C296.49,-108.36 336.62,-90.13 359.87,-79.57"/>
<polygon fill="#63b8ff" stroke="#63b8ff" points="264.35,-119.11 256.69,-126.44 267.24,-125.49 264.35,-119.11"/>
</a>
</g>
</g>
<!-- Node7&#45;&gt;Node5 -->
<g id="edge8_Node000007_Node000005" class="edge">
<title>Node7&#45;&gt;Node5</title>
<g id="a_edge8_Node000007_Node000005"><a xlink:title=" ">
<path fill="none" stroke="#63b8ff" d="M177.59,-51.19C151.25,-40.57 118.97,-27.54 98.14,-19.14"/>
<polygon fill="#63b8ff" stroke="#63b8ff" points="176.41,-54.49 187,-54.99 179.03,-48 176.41,-54.49"/>
</a>
</g>
</g>
<!-- Node7&#45;&gt;Node8 -->
<g id="edge7_Node000007_Node000008" class="edge">
<title>Node7&#45;&gt;Node8</title>
<g id="a_edge7_Node000007_Node000008"><a xlink:title=" ">
<path fill="none" stroke="#63b8ff" d="M238.81,-46.8C246.18,-37.21 254.39,-26.54 259.98,-19.27"/>
<polygon fill="#63b8ff" stroke="#63b8ff" points="235.94,-44.78 232.62,-54.84 241.49,-49.05 235.94,-44.78"/>
</a>
</g>
</g>
<!-- Node10&#45;&gt;Node3 -->
<g id="edge12_Node000010_Node000003" class="edge">
<title>Node10&#45;&gt;Node3</title>
<g id="a_edge12_Node000010_Node000003"><a xlink:title=" ">
<path fill="none" stroke="#63b8ff" d="M178.27,-193.45C158.25,-183.3 135.24,-171.64 116.29,-162.04"/>
<polygon fill="#63b8ff" stroke="#63b8ff" points="176.73,-196.59 187.23,-197.99 179.89,-190.35 176.73,-196.59"/>
</a>
</g>
</g>
<!-- Node10&#45;&gt;Node6 -->
<g id="edge13_Node000010_Node000006" class="edge">
<title>Node10&#45;&gt;Node6</title>
<g id="a_edge13_Node000010_Node000006"><a xlink:title=" ">
<path fill="none" stroke="#63b8ff" d="M225.73,-187.61C225.73,-177.01 225.73,-165.57 225.73,-156.86"/>
<polygon fill="#63b8ff" stroke="#63b8ff" points="222.23,-187.79 225.73,-197.79 229.23,-187.79 222.23,-187.79"/>
</a>
</g>
</g>
</g>
</svg>
