<?xml version="1.0" encoding="UTF-8" standalone="no"?>
<!DOCTYPE svg PUBLIC "-//W3C//DTD SVG 1.1//EN"
 "http://www.w3.org/Graphics/SVG/1.1/DTD/svg11.dtd">
<!-- Generated by graphviz version 2.43.0 (0)
 -->
<!-- Title: include/gpio_manager/drivers/igpio_driver.hpp Pages: 1 -->
<svg width="449pt" height="236pt"
 viewBox="0.00 0.00 449.00 236.00" xmlns="http://www.w3.org/2000/svg" xmlns:xlink="http://www.w3.org/1999/xlink">
<g id="graph0" class="graph" transform="scale(1 1) rotate(0) translate(4 232)">
<title>include/gpio_manager/drivers/igpio_driver.hpp</title>
<!-- Node1 -->
<g id="Node000001" class="node">
<title>Node1</title>
<g id="a_Node000001"><a xlink:title=" ">
<polygon fill="#999999" stroke="#666666" points="293.5,-228 159.5,-228 159.5,-198 293.5,-198 293.5,-228"/>
<text text-anchor="start" x="167.5" y="-216" font-family="Helvetica,sans-Serif" font-size="10.00">include/gpio_manager</text>
<text text-anchor="middle" x="226.5" y="-205" font-family="Helvetica,sans-Serif" font-size="10.00">/drivers/igpio_driver.hpp</text>
</a>
</g>
</g>
<!-- Node2 -->
<g id="Node000002" class="node">
<title>Node2</title>
<g id="a_Node000002"><a xlink:href="linux__gpiod__driver_8hpp.html" target="_top" xlink:title=" ">
<polygon fill="white" stroke="#666666" points="218,-162 93,-162 93,-121 218,-121 218,-162"/>
<text text-anchor="start" x="101" y="-150" font-family="Helvetica,sans-Serif" font-size="10.00">include/gpio_manager</text>
<text text-anchor="start" x="101" y="-139" font-family="Helvetica,sans-Serif" font-size="10.00">/drivers/linux_gpiod</text>
<text text-anchor="middle" x="155.5" y="-128" font-family="Helvetica,sans-Serif" font-size="10.00">_driver.hpp</text>
</a>
</g>
</g>
<!-- Node1&#45;&gt;Node2 -->
<g id="edge1_Node000001_Node000002" class="edge">
<title>Node1&#45;&gt;Node2</title>
<g id="a_edge1_Node000001_Node000002"><a xlink:title=" ">
<path fill="none" stroke="#63b8ff" d="M204.73,-190.69C195.41,-181.57 184.61,-170.99 175.5,-162.07"/>
<polygon fill="#63b8ff" stroke="#63b8ff" points="202.54,-193.44 212.13,-197.94 207.43,-188.44 202.54,-193.44"/>
</a>
</g>
</g>
<!-- Node5 -->
<g id="Node000005" class="node">
<title>Node5</title>
<g id="a_Node000005"><a xlink:href="gpio_8hpp.html" target="_top" xlink:title=" ">
<polygon fill="white" stroke="#666666" points="380,-156.5 255,-156.5 255,-126.5 380,-126.5 380,-156.5"/>
<text text-anchor="start" x="263" y="-144.5" font-family="Helvetica,sans-Serif" font-size="10.00">include/gpio_manager</text>
<text text-anchor="middle" x="317.5" y="-133.5" font-family="Helvetica,sans-Serif" font-size="10.00">/gpio.hpp</text>
</a>
</g>
</g>
<!-- Node1&#45;&gt;Node5 -->
<g id="edge4_Node000001_Node000005" class="edge">
<title>Node1&#45;&gt;Node5</title>
<g id="a_edge4_Node000001_Node000005"><a xlink:title=" ">
<path fill="none" stroke="#63b8ff" d="M253.18,-191.63C267.94,-180.35 285.92,-166.62 299.11,-156.54"/>
<polygon fill="#63b8ff" stroke="#63b8ff" points="250.74,-189.08 244.92,-197.94 254.99,-194.65 250.74,-189.08"/>
</a>
</g>
</g>
<!-- Node3 -->
<g id="Node000003" class="node">
<title>Node3</title>
<g id="a_Node000003"><a xlink:href="linux__gpiod__driver_8cpp.html" target="_top" xlink:title=" ">
<polygon fill="white" stroke="#666666" points="127,-85 0,-85 0,-55 127,-55 127,-85"/>
<text text-anchor="start" x="8" y="-73" font-family="Helvetica,sans-Serif" font-size="10.00">src/drivers/linux_gpiod</text>
<text text-anchor="middle" x="63.5" y="-62" font-family="Helvetica,sans-Serif" font-size="10.00">_driver.cpp</text>
</a>
</g>
</g>
<!-- Node2&#45;&gt;Node3 -->
<g id="edge2_Node000002_Node000003" class="edge">
<title>Node2&#45;&gt;Node3</title>
<g id="a_edge2_Node000002_Node000003"><a xlink:title=" ">
<path fill="none" stroke="#63b8ff" d="M121.33,-114.69C108.04,-104.65 93.34,-93.54 82.08,-85.04"/>
<polygon fill="#63b8ff" stroke="#63b8ff" points="119.29,-117.53 129.38,-120.77 123.51,-111.95 119.29,-117.53"/>
</a>
</g>
</g>
<!-- Node4 -->
<g id="Node000004" class="node">
<title>Node4</title>
<g id="a_Node000004"><a xlink:href="factory__linux_8cpp.html" target="_top" xlink:title=" ">
<polygon fill="white" stroke="#666666" points="233.5,-19 115.5,-19 115.5,0 233.5,0 233.5,-19"/>
<text text-anchor="middle" x="174.5" y="-7" font-family="Helvetica,sans-Serif" font-size="10.00">src/factory_linux.cpp</text>
</a>
</g>
</g>
<!-- Node2&#45;&gt;Node4 -->
<g id="edge3_Node000002_Node000004" class="edge">
<title>Node2&#45;&gt;Node4</title>
<g id="a_edge3_Node000002_Node000004"><a xlink:title=" ">
<path fill="none" stroke="#63b8ff" d="M159.88,-110.52C164.22,-80.83 170.59,-37.25 173.26,-19.01"/>
<polygon fill="#63b8ff" stroke="#63b8ff" points="156.37,-110.35 158.39,-120.76 163.3,-111.37 156.37,-110.35"/>
</a>
</g>
</g>
<!-- Node6 -->
<g id="Node000006" class="node">
<title>Node6</title>
<g id="a_Node000006"><a xlink:href="libgpio__manager_8hpp.html" target="_top" xlink:title=" ">
<polygon fill="white" stroke="#666666" points="309,-85 184,-85 184,-55 309,-55 309,-85"/>
<text text-anchor="start" x="192" y="-73" font-family="Helvetica,sans-Serif" font-size="10.00">include/gpio_manager</text>
<text text-anchor="middle" x="246.5" y="-62" font-family="Helvetica,sans-Serif" font-size="10.00">/libgpio_manager.hpp</text>
</a>
</g>
</g>
<!-- Node5&#45;&gt;Node6 -->
<g id="edge5_Node000005_Node000006" class="edge">
<title>Node5&#45;&gt;Node6</title>
<g id="a_edge5_Node000005_Node000006"><a xlink:title=" ">
<path fill="none" stroke="#63b8ff" d="M295.71,-119.17C284.38,-108.08 270.85,-94.84 260.85,-85.04"/>
<polygon fill="#63b8ff" stroke="#63b8ff" points="293.54,-121.94 303.13,-126.44 298.43,-116.94 293.54,-121.94"/>
</a>
</g>
</g>
<!-- Node7 -->
<g id="Node000007" class="node">
<title>Node7</title>
<g id="a_Node000007"><a xlink:href="gpio__c__api_8cpp.html" target="_top" xlink:title=" ">
<polygon fill="white" stroke="#666666" points="394.5,-19 260.5,-19 260.5,0 394.5,0 394.5,-19"/>
<text text-anchor="middle" x="327.5" y="-7" font-family="Helvetica,sans-Serif" font-size="10.00">src/c_api/gpio_c_api.cpp</text>
</a>
</g>
</g>
<!-- Node5&#45;&gt;Node7 -->
<g id="edge8_Node000005_Node000007" class="edge">
<title>Node5&#45;&gt;Node7</title>
<g id="a_edge8_Node000005_Node000007"><a xlink:title=" ">
<path fill="none" stroke="#63b8ff" d="M319.38,-116.07C321.64,-86.67 325.32,-38.81 326.83,-19.25"/>
<polygon fill="#63b8ff" stroke="#63b8ff" points="315.87,-116.1 318.59,-126.34 322.85,-116.64 315.87,-116.1"/>
</a>
</g>
</g>
<!-- Node8 -->
<g id="Node000008" class="node">
<title>Node8</title>
<g id="a_Node000008"><a xlink:href="gpio_8cpp.html" target="_top" xlink:title=" ">
<polygon fill="white" stroke="#666666" points="441,-79.5 366,-79.5 366,-60.5 441,-60.5 441,-79.5"/>
<text text-anchor="middle" x="403.5" y="-67.5" font-family="Helvetica,sans-Serif" font-size="10.00">src/gpio.cpp</text>
</a>
</g>
</g>
<!-- Node5&#45;&gt;Node8 -->
<g id="edge9_Node000005_Node000008" class="edge">
<title>Node5&#45;&gt;Node8</title>
<g id="a_edge9_Node000005_Node000008"><a xlink:title=" ">
<path fill="none" stroke="#63b8ff" d="M343.1,-119.81C359.63,-106.45 380.28,-89.76 392.65,-79.77"/>
<polygon fill="#63b8ff" stroke="#63b8ff" points="340.48,-117.43 334.9,-126.44 344.88,-122.87 340.48,-117.43"/>
</a>
</g>
</g>
<!-- Node6&#45;&gt;Node4 -->
<g id="edge7_Node000006_Node000004" class="edge">
<title>Node6&#45;&gt;Node4</title>
<g id="a_edge7_Node000006_Node000004"><a xlink:title=" ">
<path fill="none" stroke="#63b8ff" d="M221.31,-48.53C208.98,-38.51 194.78,-26.98 185.29,-19.27"/>
<polygon fill="#63b8ff" stroke="#63b8ff" points="219.1,-51.25 229.07,-54.84 223.52,-45.82 219.1,-51.25"/>
</a>
</g>
</g>
<!-- Node6&#45;&gt;Node7 -->
<g id="edge6_Node000006_Node000007" class="edge">
<title>Node6&#45;&gt;Node7</title>
<g id="a_edge6_Node000006_Node000007"><a xlink:title=" ">
<path fill="none" stroke="#63b8ff" d="M274.45,-48.82C288.41,-38.73 304.58,-27.05 315.36,-19.27"/>
<polygon fill="#63b8ff" stroke="#63b8ff" points="272.17,-46.15 266.11,-54.84 276.26,-51.82 272.17,-46.15"/>
</a>
</g>
</g>
</g>
</svg>
