<?xml version="1.0" encoding="UTF-8" standalone="no"?>
<!DOCTYPE svg PUBLIC "-//W3C//DTD SVG 1.1//EN"
 "http://www.w3.org/Graphics/SVG/1.1/DTD/svg11.dtd">
<!-- Generated by graphviz version 2.43.0 (0)
 -->
<!-- Title: include/gpio_manager/libgpio_manager.hpp Pages: 1 -->
<svg width="362pt" height="214pt"
 viewBox="0.00 0.00 362.00 214.00" xmlns="http://www.w3.org/2000/svg" xmlns:xlink="http://www.w3.org/1999/xlink">
<g id="graph0" class="graph" transform="scale(1 1) rotate(0) translate(4 210)">
<title>include/gpio_manager/libgpio_manager.hpp</title>
<!-- Node1 -->
<g id="Node000001" class="node">
<title>Node1</title>
<g id="a_Node000001"><a xlink:title=" ">
<polygon fill="#999999" stroke="#666666" points="149.5,-206 24.5,-206 24.5,-176 149.5,-176 149.5,-206"/>
<text text-anchor="start" x="32.5" y="-194" font-family="Helvetica,sans-Serif" font-size="10.00">include/gpio_manager</text>
<text text-anchor="middle" x="87" y="-183" font-family="Helvetica,sans-Serif" font-size="10.00">/libgpio_manager.hpp</text>
</a>
</g>
</g>
<!-- Node2 -->
<g id="Node000002" class="node">
<title>Node2</title>
<g id="a_Node000002"><a xlink:title=" ">
<polygon fill="#e0e0e0" stroke="#999999" points="58,-79.5 0,-79.5 0,-60.5 58,-60.5 58,-79.5"/>
<text text-anchor="middle" x="29" y="-67.5" font-family="Helvetica,sans-Serif" font-size="10.00">memory</text>
</a>
</g>
</g>
<!-- Node1&#45;&gt;Node2 -->
<g id="edge1_Node000001_Node000002" class="edge">
<title>Node1&#45;&gt;Node2</title>
<g id="a_edge1_Node000001_Node000002"><a xlink:title=" ">
<path fill="none" stroke="#63b8ff" d="M80.12,-175.88C69.56,-154.22 49.36,-112.78 37.77,-88.99"/>
<polygon fill="#63b8ff" stroke="#63b8ff" points="40.77,-87.17 33.25,-79.71 34.48,-90.23 40.77,-87.17"/>
</a>
</g>
</g>
<!-- Node3 -->
<g id="Node000003" class="node">
<title>Node3</title>
<g id="a_Node000003"><a xlink:href="gpio_8hpp.html" target="_top" xlink:title=" ">
<polygon fill="white" stroke="#666666" points="159.5,-140 100.5,-140 100.5,-121 159.5,-121 159.5,-140"/>
<text text-anchor="middle" x="130" y="-128" font-family="Helvetica,sans-Serif" font-size="10.00">gpio.hpp</text>
</a>
</g>
</g>
<!-- Node1&#45;&gt;Node3 -->
<g id="edge2_Node000001_Node000003" class="edge">
<title>Node1&#45;&gt;Node3</title>
<g id="a_edge2_Node000001_Node000003"><a xlink:title=" ">
<path fill="none" stroke="#63b8ff" d="M97.41,-175.84C103.46,-167.61 111.12,-157.18 117.5,-148.51"/>
<polygon fill="#63b8ff" stroke="#63b8ff" points="120.45,-150.4 123.56,-140.27 114.81,-146.25 120.45,-150.4"/>
</a>
</g>
</g>
<!-- Node3&#45;&gt;Node2 -->
<g id="edge3_Node000003_Node000002" class="edge">
<title>Node3&#45;&gt;Node2</title>
<g id="a_edge3_Node000003_Node000002"><a xlink:title=" ">
<path fill="none" stroke="#63b8ff" d="M115.1,-120.87C98.69,-111.36 72.07,-95.95 52.77,-84.77"/>
<polygon fill="#63b8ff" stroke="#63b8ff" points="54.37,-81.65 43.96,-79.67 50.86,-87.71 54.37,-81.65"/>
</a>
</g>
</g>
<!-- Node4 -->
<g id="Node000004" class="node">
<title>Node4</title>
<g id="a_Node000004"><a xlink:href="igpio__driver_8hpp.html" target="_top" xlink:title=" ">
<polygon fill="white" stroke="#666666" points="213.5,-79.5 76.5,-79.5 76.5,-60.5 213.5,-60.5 213.5,-79.5"/>
<text text-anchor="middle" x="145" y="-67.5" font-family="Helvetica,sans-Serif" font-size="10.00">./drivers/igpio_driver.hpp</text>
</a>
</g>
</g>
<!-- Node3&#45;&gt;Node4 -->
<g id="edge4_Node000003_Node000004" class="edge">
<title>Node3&#45;&gt;Node4</title>
<g id="a_edge4_Node000003_Node000004"><a xlink:title=" ">
<path fill="none" stroke="#63b8ff" d="M132.21,-120.87C134.32,-112.66 137.55,-100.04 140.24,-89.55"/>
<polygon fill="#63b8ff" stroke="#63b8ff" points="143.68,-90.22 142.78,-79.67 136.9,-88.48 143.68,-90.22"/>
</a>
</g>
</g>
<!-- Node6 -->
<g id="Node000006" class="node">
<title>Node6</title>
<g id="a_Node000006"><a xlink:href="igpio__named__driver_8hpp.html" target="_top" xlink:title=" ">
<polygon fill="white" stroke="#666666" points="354,-85 232,-85 232,-55 354,-55 354,-85"/>
<text text-anchor="start" x="240" y="-73" font-family="Helvetica,sans-Serif" font-size="10.00">./drivers/igpio_named</text>
<text text-anchor="middle" x="293" y="-62" font-family="Helvetica,sans-Serif" font-size="10.00">_driver.hpp</text>
</a>
</g>
</g>
<!-- Node3&#45;&gt;Node6 -->
<g id="edge6_Node000003_Node000006" class="edge">
<title>Node3&#45;&gt;Node6</title>
<g id="a_edge6_Node000003_Node000006"><a xlink:title=" ">
<path fill="none" stroke="#63b8ff" d="M153.7,-120.99C177.36,-112.5 214.42,-99.2 244.37,-88.45"/>
<polygon fill="#63b8ff" stroke="#63b8ff" points="245.58,-91.74 253.81,-85.06 243.22,-85.15 245.58,-91.74"/>
</a>
</g>
</g>
<!-- Node5 -->
<g id="Node000005" class="node">
<title>Node5</title>
<g id="a_Node000005"><a xlink:href="gpio__types_8hpp.html" target="_top" xlink:title="GPIO Manager Types of pins modes and values.">
<polygon fill="white" stroke="#666666" points="224,-19 124,-19 124,0 224,0 224,-19"/>
<text text-anchor="middle" x="174" y="-7" font-family="Helvetica,sans-Serif" font-size="10.00">../gpio_types.hpp</text>
</a>
</g>
</g>
<!-- Node4&#45;&gt;Node5 -->
<g id="edge5_Node000004_Node000005" class="edge">
<title>Node4&#45;&gt;Node5</title>
<g id="a_edge5_Node000004_Node000005"><a xlink:title=" ">
<path fill="none" stroke="#63b8ff" d="M149.28,-60.37C153.43,-51.99 159.87,-39.01 165.13,-28.39"/>
<polygon fill="#63b8ff" stroke="#63b8ff" points="168.4,-29.68 169.7,-19.17 162.13,-26.57 168.4,-29.68"/>
</a>
</g>
</g>
<!-- Node6&#45;&gt;Node5 -->
<g id="edge8_Node000006_Node000005" class="edge">
<title>Node6&#45;&gt;Node5</title>
<g id="a_edge8_Node000006_Node000005"><a xlink:title=" ">
<path fill="none" stroke="#63b8ff" d="M264.5,-54.99C245.09,-45.45 219.57,-32.9 200.58,-23.57"/>
<polygon fill="#63b8ff" stroke="#63b8ff" points="202.09,-20.41 191.57,-19.14 199,-26.69 202.09,-20.41"/>
</a>
</g>
</g>
<!-- Node7 -->
<g id="Node000007" class="node">
<title>Node7</title>
<g id="a_Node000007"><a xlink:title=" ">
<polygon fill="#e0e0e0" stroke="#999999" points="315,-19 271,-19 271,0 315,0 315,-19"/>
<text text-anchor="middle" x="293" y="-7" font-family="Helvetica,sans-Serif" font-size="10.00">string</text>
</a>
</g>
</g>
<!-- Node6&#45;&gt;Node7 -->
<g id="edge7_Node000006_Node000007" class="edge">
<title>Node6&#45;&gt;Node7</title>
<g id="a_edge7_Node000006_Node000007"><a xlink:title=" ">
<path fill="none" stroke="#63b8ff" d="M293,-54.84C293,-47.21 293,-37.7 293,-29.45"/>
<polygon fill="#63b8ff" stroke="#63b8ff" points="296.5,-29.27 293,-19.27 289.5,-29.27 296.5,-29.27"/>
</a>
</g>
</g>
</g>
</svg>
