<?xml version="1.0" encoding="UTF-8" standalone="no"?>
<!DOCTYPE svg PUBLIC "-//W3C//DTD SVG 1.1//EN"
 "http://www.w3.org/Graphics/SVG/1.1/DTD/svg11.dtd">
<!-- Generated by graphviz version 2.43.0 (0)
 -->
<!-- Title: src/drivers/linux_gpiod_driver.cpp Pages: 1 -->
<svg width="690pt" height="214pt"
 viewBox="0.00 0.00 690.00 214.00" xmlns="http://www.w3.org/2000/svg" xmlns:xlink="http://www.w3.org/1999/xlink">
<g id="graph0" class="graph" transform="scale(1 1) rotate(0) translate(4 210)">
<title>src/drivers/linux_gpiod_driver.cpp</title>
<!-- Node1 -->
<g id="Node000001" class="node">
<title>Node1</title>
<g id="a_Node000001"><a xlink:title=" ">
<polygon fill="#999999" stroke="#666666" points="581,-206 454,-206 454,-176 581,-176 581,-206"/>
<text text-anchor="start" x="462" y="-194" font-family="Helvetica,sans-Serif" font-size="10.00">src/drivers/linux_gpiod</text>
<text text-anchor="middle" x="517.5" y="-183" font-family="Helvetica,sans-Serif" font-size="10.00">_driver.cpp</text>
</a>
</g>
</g>
<!-- Node2 -->
<g id="Node000002" class="node">
<title>Node2</title>
<g id="a_Node000002"><a xlink:href="linux__gpiod__driver_8hpp.html" target="_top" xlink:title=" ">
<polygon fill="white" stroke="#666666" points="378.5,-140 248.5,-140 248.5,-110 378.5,-110 378.5,-140"/>
<text text-anchor="start" x="256.5" y="-128" font-family="Helvetica,sans-Serif" font-size="10.00">gpio_manager/drivers</text>
<text text-anchor="middle" x="313.5" y="-117" font-family="Helvetica,sans-Serif" font-size="10.00">/linux_gpiod_driver.hpp</text>
</a>
</g>
</g>
<!-- Node1&#45;&gt;Node2 -->
<g id="edge1_Node000001_Node000002" class="edge">
<title>Node1&#45;&gt;Node2</title>
<g id="a_edge1_Node000001_Node000002"><a xlink:title=" ">
<path fill="none" stroke="#63b8ff" d="M472.73,-175.95C441.91,-166.28 400.77,-153.38 368.03,-143.11"/>
<polygon fill="#63b8ff" stroke="#63b8ff" points="368.75,-139.67 358.16,-140.01 366.66,-146.35 368.75,-139.67"/>
</a>
</g>
</g>
<!-- Node3 -->
<g id="Node000003" class="node">
<title>Node3</title>
<g id="a_Node000003"><a xlink:title=" ">
<polygon fill="#e0e0e0" stroke="#999999" points="385.5,-19 341.5,-19 341.5,0 385.5,0 385.5,-19"/>
<text text-anchor="middle" x="363.5" y="-7" font-family="Helvetica,sans-Serif" font-size="10.00">string</text>
</a>
</g>
</g>
<!-- Node1&#45;&gt;Node3 -->
<g id="edge14_Node000001_Node000003" class="edge">
<title>Node1&#45;&gt;Node3</title>
<g id="a_edge14_Node000001_Node000003"><a xlink:title=" ">
<path fill="none" stroke="#63b8ff" d="M519.94,-175.86C523.72,-148.98 527.79,-90.05 498.5,-55 473.3,-24.85 427.22,-14.99 395.99,-11.84"/>
<polygon fill="#63b8ff" stroke="#63b8ff" points="395.87,-8.32 385.62,-10.99 395.29,-15.3 395.87,-8.32"/>
</a>
</g>
</g>
<!-- Node5 -->
<g id="Node000005" class="node">
<title>Node5</title>
<g id="a_Node000005"><a xlink:href="board_8hpp.html" target="_top" xlink:title=" ">
<polygon fill="white" stroke="#666666" points="489.5,-74 415.5,-74 415.5,-55 489.5,-55 489.5,-74"/>
<text text-anchor="middle" x="452.5" y="-62" font-family="Helvetica,sans-Serif" font-size="10.00">../board.hpp</text>
</a>
</g>
</g>
<!-- Node1&#45;&gt;Node5 -->
<g id="edge11_Node000001_Node000005" class="edge">
<title>Node1&#45;&gt;Node5</title>
<g id="a_edge11_Node000001_Node000005"><a xlink:title=" ">
<path fill="none" stroke="#63b8ff" d="M510.04,-175.72C498.09,-152.81 474.65,-107.93 461.68,-83.09"/>
<polygon fill="#63b8ff" stroke="#63b8ff" points="464.7,-81.31 456.97,-74.07 458.5,-84.55 464.7,-81.31"/>
</a>
</g>
</g>
<!-- Node9 -->
<g id="Node000009" class="node">
<title>Node9</title>
<g id="a_Node000009"><a xlink:title=" ">
<polygon fill="#e0e0e0" stroke="#999999" points="599,-134.5 546,-134.5 546,-115.5 599,-115.5 599,-134.5"/>
<text text-anchor="middle" x="572.5" y="-122.5" font-family="Helvetica,sans-Serif" font-size="10.00">gpiod.h</text>
</a>
</g>
</g>
<!-- Node1&#45;&gt;Node9 -->
<g id="edge12_Node000001_Node000009" class="edge">
<title>Node1&#45;&gt;Node9</title>
<g id="a_edge12_Node000001_Node000009"><a xlink:title=" ">
<path fill="none" stroke="#63b8ff" d="M529.71,-175.8C538.11,-166.01 549.31,-152.98 558.15,-142.7"/>
<polygon fill="#63b8ff" stroke="#63b8ff" points="561.04,-144.71 564.9,-134.84 555.73,-140.15 561.04,-144.71"/>
</a>
</g>
</g>
<!-- Node10 -->
<g id="Node000010" class="node">
<title>Node10</title>
<g id="a_Node000010"><a xlink:title=" ">
<polygon fill="#e0e0e0" stroke="#999999" points="682,-134.5 617,-134.5 617,-115.5 682,-115.5 682,-134.5"/>
<text text-anchor="middle" x="649.5" y="-122.5" font-family="Helvetica,sans-Serif" font-size="10.00">stdexcept</text>
</a>
</g>
</g>
<!-- Node1&#45;&gt;Node10 -->
<g id="edge13_Node000001_Node000010" class="edge">
<title>Node1&#45;&gt;Node10</title>
<g id="a_edge13_Node000001_Node000010"><a xlink:title=" ">
<path fill="none" stroke="#63b8ff" d="M546.47,-175.95C569.21,-164.93 600.62,-149.7 622.77,-138.96"/>
<polygon fill="#63b8ff" stroke="#63b8ff" points="624.46,-142.03 631.93,-134.52 621.41,-135.73 624.46,-142.03"/>
</a>
</g>
</g>
<!-- Node2&#45;&gt;Node3 -->
<g id="edge2_Node000002_Node000003" class="edge">
<title>Node2&#45;&gt;Node3</title>
<g id="a_edge2_Node000002_Node000003"><a xlink:title=" ">
<path fill="none" stroke="#63b8ff" d="M303.99,-109.79C295.58,-95.3 286.02,-72.53 295.5,-55 303.35,-40.48 318.23,-29.94 332.07,-22.77"/>
<polygon fill="#63b8ff" stroke="#63b8ff" points="333.86,-25.79 341.39,-18.34 330.86,-19.47 333.86,-25.79"/>
</a>
</g>
</g>
<!-- Node4 -->
<g id="Node000004" class="node">
<title>Node4</title>
<g id="a_Node000004"><a xlink:title=" ">
<polygon fill="#e0e0e0" stroke="#999999" points="397,-74 304,-74 304,-55 397,-55 397,-74"/>
<text text-anchor="middle" x="350.5" y="-62" font-family="Helvetica,sans-Serif" font-size="10.00">unordered_map</text>
</a>
</g>
</g>
<!-- Node2&#45;&gt;Node4 -->
<g id="edge3_Node000002_Node000004" class="edge">
<title>Node2&#45;&gt;Node4</title>
<g id="a_edge3_Node000002_Node000004"><a xlink:title=" ">
<path fill="none" stroke="#63b8ff" d="M322.46,-109.84C327.61,-101.69 334.12,-91.4 339.57,-82.78"/>
<polygon fill="#63b8ff" stroke="#63b8ff" points="342.57,-84.59 344.96,-74.27 336.65,-80.85 342.57,-84.59"/>
</a>
</g>
</g>
<!-- Node2&#45;&gt;Node5 -->
<g id="edge4_Node000002_Node000005" class="edge">
<title>Node2&#45;&gt;Node5</title>
<g id="a_edge4_Node000002_Node000005"><a xlink:title=" ">
<path fill="none" stroke="#63b8ff" d="M346.79,-109.99C369.88,-100.27 400.37,-87.44 422.66,-78.06"/>
<polygon fill="#63b8ff" stroke="#63b8ff" points="424.11,-81.24 431.97,-74.14 421.4,-74.79 424.11,-81.24"/>
</a>
</g>
</g>
<!-- Node6 -->
<g id="Node000006" class="node">
<title>Node6</title>
<g id="a_Node000006"><a xlink:href="igpio__driver_8hpp.html" target="_top" xlink:title=" ">
<polygon fill="white" stroke="#666666" points="95,-74 0,-74 0,-55 95,-55 95,-74"/>
<text text-anchor="middle" x="47.5" y="-62" font-family="Helvetica,sans-Serif" font-size="10.00">igpio_driver.hpp</text>
</a>
</g>
</g>
<!-- Node2&#45;&gt;Node6 -->
<g id="edge6_Node000002_Node000006" class="edge">
<title>Node2&#45;&gt;Node6</title>
<g id="a_edge6_Node000002_Node000006"><a xlink:title=" ">
<path fill="none" stroke="#63b8ff" d="M249.79,-109.99C202.69,-99.63 139.51,-85.73 96.36,-76.25"/>
<polygon fill="#63b8ff" stroke="#63b8ff" points="96.91,-72.78 86.39,-74.05 95.41,-79.62 96.91,-72.78"/>
</a>
</g>
</g>
<!-- Node8 -->
<g id="Node000008" class="node">
<title>Node8</title>
<g id="a_Node000008"><a xlink:href="igpio__named__driver_8hpp.html" target="_top" xlink:title=" ">
<polygon fill="white" stroke="#666666" points="247.5,-74 113.5,-74 113.5,-55 247.5,-55 247.5,-74"/>
<text text-anchor="middle" x="180.5" y="-62" font-family="Helvetica,sans-Serif" font-size="10.00">igpio_named_driver.hpp</text>
</a>
</g>
</g>
<!-- Node2&#45;&gt;Node8 -->
<g id="edge8_Node000002_Node000008" class="edge">
<title>Node2&#45;&gt;Node8</title>
<g id="a_edge8_Node000002_Node000008"><a xlink:title=" ">
<path fill="none" stroke="#63b8ff" d="M281.64,-109.99C259.65,-100.31 230.65,-87.56 209.34,-78.18"/>
<polygon fill="#63b8ff" stroke="#63b8ff" points="210.7,-74.96 200.14,-74.14 207.89,-81.37 210.7,-74.96"/>
</a>
</g>
</g>
<!-- Node5&#45;&gt;Node3 -->
<g id="edge5_Node000005_Node000003" class="edge">
<title>Node5&#45;&gt;Node3</title>
<g id="a_edge5_Node000005_Node000003"><a xlink:title=" ">
<path fill="none" stroke="#63b8ff" d="M438.2,-54.98C424.4,-46.77 403.26,-34.18 386.99,-24.49"/>
<polygon fill="#63b8ff" stroke="#63b8ff" points="388.44,-21.28 378.06,-19.17 384.86,-27.29 388.44,-21.28"/>
</a>
</g>
</g>
<!-- Node7 -->
<g id="Node000007" class="node">
<title>Node7</title>
<g id="a_Node000007"><a xlink:href="gpio__types_8hpp.html" target="_top" xlink:title="GPIO Manager Types of pins modes and values.">
<polygon fill="white" stroke="#666666" points="164.5,-19 64.5,-19 64.5,0 164.5,0 164.5,-19"/>
<text text-anchor="middle" x="114.5" y="-7" font-family="Helvetica,sans-Serif" font-size="10.00">../gpio_types.hpp</text>
</a>
</g>
</g>
<!-- Node6&#45;&gt;Node7 -->
<g id="edge7_Node000006_Node000007" class="edge">
<title>Node6&#45;&gt;Node7</title>
<g id="a_edge7_Node000006_Node000007"><a xlink:title=" ">
<path fill="none" stroke="#63b8ff" d="M58.26,-54.98C68.27,-47.07 83.39,-35.11 95.43,-25.58"/>
<polygon fill="#63b8ff" stroke="#63b8ff" points="97.87,-28.12 103.54,-19.17 93.53,-22.63 97.87,-28.12"/>
</a>
</g>
</g>
<!-- Node8&#45;&gt;Node3 -->
<g id="edge9_Node000008_Node000003" class="edge">
<title>Node8&#45;&gt;Node3</title>
<g id="a_edge9_Node000008_Node000003"><a xlink:title=" ">
<path fill="none" stroke="#63b8ff" d="M209.9,-54.98C243.14,-45.36 297.08,-29.74 331.39,-19.8"/>
<polygon fill="#63b8ff" stroke="#63b8ff" points="332.73,-23.05 341.36,-16.91 330.79,-16.33 332.73,-23.05"/>
</a>
</g>
</g>
<!-- Node8&#45;&gt;Node7 -->
<g id="edge10_Node000008_Node000007" class="edge">
<title>Node8&#45;&gt;Node7</title>
<g id="a_edge10_Node000008_Node000007"><a xlink:title=" ">
<path fill="none" stroke="#63b8ff" d="M169.9,-54.98C160.04,-47.07 145.15,-35.11 133.28,-25.58"/>
<polygon fill="#63b8ff" stroke="#63b8ff" points="135.29,-22.7 125.3,-19.17 130.9,-28.16 135.29,-22.7"/>
</a>
</g>
</g>
</g>
</svg>
