<?xml version="1.0" encoding="UTF-8" standalone="no"?>
<!DOCTYPE svg PUBLIC "-//W3C//DTD SVG 1.1//EN"
 "http://www.w3.org/Graphics/SVG/1.1/DTD/svg11.dtd">
<!-- Generated by graphviz version 2.43.0 (0)
 -->
<!-- Title: gpio_manager::IGpioDriver Pages: 1 -->
<svg width="184pt" height="505pt"
 viewBox="0.00 0.00 184.00 505.00" xmlns="http://www.w3.org/2000/svg" xmlns:xlink="http://www.w3.org/1999/xlink">
<g id="graph0" class="graph" transform="scale(1 1) rotate(0) translate(4 501)">
<title>gpio_manager::IGpioDriver</title>
<!-- Node1 -->
<g id="Node000001" class="node">
<title>Node1</title>
<g id="a_Node000001"><a xlink:title=" ">
<polygon fill="#999999" stroke="transparent" points="164,-497 12,-497 12,-348 164,-348 164,-497"/>
<text text-anchor="start" x="22" y="-484.5" font-family="Helvetica,sans-Serif" font-size="10.00">gpio_manager::IGpioDriver</text>
<text text-anchor="start" x="86" y="-469.5" font-family="Helvetica,sans-Serif" font-size="10.00"> </text>
<text text-anchor="start" x="16" y="-454.5" font-family="Helvetica,sans-Serif" font-size="10.00">+</text>
<text text-anchor="start" x="29" y="-454.5" font-family="Helvetica,sans-Serif" font-size="10.00">virtual ~IGpioDriver</text>
<text text-anchor="start" x="29" y="-443.5" font-family="Helvetica,sans-Serif" font-size="10.00">()=default</text>
<text text-anchor="start" x="16" y="-428.5" font-family="Helvetica,sans-Serif" font-size="10.00">+</text>
<text text-anchor="start" x="29" y="-428.5" font-family="Helvetica,sans-Serif" font-size="10.00">virtual void set_mode</text>
<text text-anchor="start" x="29" y="-417.5" font-family="Helvetica,sans-Serif" font-size="10.00">(int pin, PinDirection</text>
<text text-anchor="start" x="29" y="-406.5" font-family="Helvetica,sans-Serif" font-size="10.00"> direction)=0</text>
<text text-anchor="start" x="16" y="-391.5" font-family="Helvetica,sans-Serif" font-size="10.00">+</text>
<text text-anchor="start" x="29" y="-391.5" font-family="Helvetica,sans-Serif" font-size="10.00">virtual void write</text>
<text text-anchor="start" x="29" y="-380.5" font-family="Helvetica,sans-Serif" font-size="10.00">(int pin, PinValue value)=0</text>
<text text-anchor="start" x="16" y="-365.5" font-family="Helvetica,sans-Serif" font-size="10.00">+</text>
<text text-anchor="start" x="29" y="-365.5" font-family="Helvetica,sans-Serif" font-size="10.00">virtual PinValue read</text>
<text text-anchor="start" x="29" y="-354.5" font-family="Helvetica,sans-Serif" font-size="10.00">(int pin)=0</text>
<polygon fill="#666666" stroke="#666666" points="12,-479.5 12,-479.5 164,-479.5 164,-479.5 12,-479.5"/>
<polygon fill="#666666" stroke="#666666" points="12,-464.5 12,-464.5 164,-464.5 164,-464.5 12,-464.5"/>
<polygon fill="none" stroke="#666666" points="12,-348 12,-497 164,-497 164,-348 12,-348"/>
</a>
</g>
</g>
<!-- Node2 -->
<g id="Node000002" class="node">
<title>Node2</title>
<g id="a_Node000002"><a xlink:href="classgpio__manager_1_1LinuxGpiodDriver.html" target="_top" xlink:title=" ">
<polygon fill="white" stroke="transparent" points="176,-312 0,-312 0,0 176,0 176,-312"/>
<text text-anchor="start" x="22.5" y="-300" font-family="Helvetica,sans-Serif" font-size="10.00">gpio_manager::LinuxGpiod</text>
<text text-anchor="start" x="72.5" y="-289" font-family="Helvetica,sans-Serif" font-size="10.00">Driver</text>
<text text-anchor="start" x="86" y="-274" font-family="Helvetica,sans-Serif" font-size="10.00"> </text>
<text text-anchor="start" x="4" y="-259" font-family="Helvetica,sans-Serif" font-size="10.00">+</text>
<text text-anchor="start" x="17" y="-259" font-family="Helvetica,sans-Serif" font-size="10.00">LinuxGpiodDriver(BoardType</text>
<text text-anchor="start" x="17" y="-248" font-family="Helvetica,sans-Serif" font-size="10.00"> board=BoardType::Auto)</text>
<text text-anchor="start" x="4" y="-233" font-family="Helvetica,sans-Serif" font-size="10.00">+</text>
<text text-anchor="start" x="17" y="-233" font-family="Helvetica,sans-Serif" font-size="10.00">LinuxGpiodDriver(const</text>
<text text-anchor="start" x="17" y="-222" font-family="Helvetica,sans-Serif" font-size="10.00"> string &amp;chip_name, BoardType</text>
<text text-anchor="start" x="17" y="-211" font-family="Helvetica,sans-Serif" font-size="10.00"> board=BoardType::Auto)</text>
<text text-anchor="start" x="4" y="-196" font-family="Helvetica,sans-Serif" font-size="10.00">+</text>
<text text-anchor="start" x="17" y="-196" font-family="Helvetica,sans-Serif" font-size="10.00">~LinuxGpiodDriver</text>
<text text-anchor="start" x="17" y="-185" font-family="Helvetica,sans-Serif" font-size="10.00">() override</text>
<text text-anchor="start" x="4" y="-170" font-family="Helvetica,sans-Serif" font-size="10.00">+</text>
<text text-anchor="start" x="17" y="-170" font-family="Helvetica,sans-Serif" font-size="10.00">void set_mode(int pin,</text>
<text text-anchor="start" x="17" y="-159" font-family="Helvetica,sans-Serif" font-size="10.00"> PinDirection direction)</text>
<text text-anchor="start" x="17" y="-148" font-family="Helvetica,sans-Serif" font-size="10.00"> override</text>
<text text-anchor="start" x="4" y="-133" font-family="Helvetica,sans-Serif" font-size="10.00">+</text>
<text text-anchor="start" x="17" y="-133" font-family="Helvetica,sans-Serif" font-size="10.00">void write(int pin,</text>
<text text-anchor="start" x="17" y="-122" font-family="Helvetica,sans-Serif" font-size="10.00"> PinValue value) override</text>
<text text-anchor="start" x="4" y="-107" font-family="Helvetica,sans-Serif" font-size="10.00">+</text>
<text text-anchor="start" x="17" y="-107" font-family="Helvetica,sans-Serif" font-size="10.00">PinValue read(int pin)</text>
<text text-anchor="start" x="17" y="-96" font-family="Helvetica,sans-Serif" font-size="10.00"> override</text>
<text text-anchor="start" x="4" y="-81" font-family="Helvetica,sans-Serif" font-size="10.00">+</text>
<text text-anchor="start" x="17" y="-81" font-family="Helvetica,sans-Serif" font-size="10.00">void set_mode(const</text>
<text text-anchor="start" x="17" y="-70" font-family="Helvetica,sans-Serif" font-size="10.00"> string &amp;pin_name, PinDirection</text>
<text text-anchor="start" x="17" y="-59" font-family="Helvetica,sans-Serif" font-size="10.00"> direction)</text>
<text text-anchor="start" x="4" y="-44" font-family="Helvetica,sans-Serif" font-size="10.00">+</text>
<text text-anchor="start" x="17" y="-44" font-family="Helvetica,sans-Serif" font-size="10.00">void write(const string</text>
<text text-anchor="start" x="17" y="-33" font-family="Helvetica,sans-Serif" font-size="10.00"> &amp;pin_name, PinValue value)</text>
<text text-anchor="start" x="4" y="-18" font-family="Helvetica,sans-Serif" font-size="10.00">+</text>
<text text-anchor="start" x="17" y="-18" font-family="Helvetica,sans-Serif" font-size="10.00">PinValue read(const</text>
<text text-anchor="start" x="17" y="-7" font-family="Helvetica,sans-Serif" font-size="10.00"> string &amp;pin_name)</text>
<polygon fill="#666666" stroke="#666666" points="0,-284 0,-284 176,-284 176,-284 0,-284"/>
<polygon fill="#666666" stroke="#666666" points="0,-269 0,-269 176,-269 176,-269 0,-269"/>
<polygon fill="none" stroke="#666666" points="0,0 0,-312 176,-312 176,0 0,0"/>
</a>
</g>
</g>
<!-- Node1&#45;&gt;Node2 -->
<g id="edge1_Node000001_Node000002" class="edge">
<title>Node1&#45;&gt;Node2</title>
<g id="a_edge1_Node000001_Node000002"><a xlink:title=" ">
<path fill="none" stroke="#63b8ff" d="M88,-337.57C88,-329.34 88,-320.83 88,-312.18"/>
<polygon fill="none" stroke="#63b8ff" points="84.5,-337.82 88,-347.82 91.5,-337.82 84.5,-337.82"/>
</a>
</g>
</g>
</g>
</svg>
