<?xml version="1.0" encoding="UTF-8" standalone="no"?>
<!DOCTYPE svg PUBLIC "-//W3C//DTD SVG 1.1//EN"
 "http://www.w3.org/Graphics/SVG/1.1/DTD/svg11.dtd">
<!-- Generated by graphviz version 2.43.0 (0)
 -->
<!-- Title: gpio_manager::LinuxGpiodDriver Pages: 1 -->
<svg width="338pt" height="527pt"
 viewBox="0.00 0.00 337.50 527.00" xmlns="http://www.w3.org/2000/svg" xmlns:xlink="http://www.w3.org/1999/xlink">
<g id="graph0" class="graph" transform="scale(1 1) rotate(0) translate(4 523)">
<title>gpio_manager::LinuxGpiodDriver</title>
<!-- Node1 -->
<g id="Node000001" class="node">
<title>Node1</title>
<g id="a_Node000001"><a xlink:title=" ">
<polygon fill="#999999" stroke="transparent" points="251,-312 75,-312 75,0 251,0 251,-312"/>
<text text-anchor="start" x="97.5" y="-300" font-family="Helvetica,sans-Serif" font-size="10.00">gpio_manager::LinuxGpiod</text>
<text text-anchor="start" x="147.5" y="-289" font-family="Helvetica,sans-Serif" font-size="10.00">Driver</text>
<text text-anchor="start" x="161" y="-274" font-family="Helvetica,sans-Serif" font-size="10.00"> </text>
<text text-anchor="start" x="79" y="-259" font-family="Helvetica,sans-Serif" font-size="10.00">+</text>
<text text-anchor="start" x="92" y="-259" font-family="Helvetica,sans-Serif" font-size="10.00">LinuxGpiodDriver(BoardType</text>
<text text-anchor="start" x="92" y="-248" font-family="Helvetica,sans-Serif" font-size="10.00"> board=BoardType::Auto)</text>
<text text-anchor="start" x="79" y="-233" font-family="Helvetica,sans-Serif" font-size="10.00">+</text>
<text text-anchor="start" x="92" y="-233" font-family="Helvetica,sans-Serif" font-size="10.00">LinuxGpiodDriver(const</text>
<text text-anchor="start" x="92" y="-222" font-family="Helvetica,sans-Serif" font-size="10.00"> string &amp;chip_name, BoardType</text>
<text text-anchor="start" x="92" y="-211" font-family="Helvetica,sans-Serif" font-size="10.00"> board=BoardType::Auto)</text>
<text text-anchor="start" x="79" y="-196" font-family="Helvetica,sans-Serif" font-size="10.00">+</text>
<text text-anchor="start" x="92" y="-196" font-family="Helvetica,sans-Serif" font-size="10.00">~LinuxGpiodDriver</text>
<text text-anchor="start" x="92" y="-185" font-family="Helvetica,sans-Serif" font-size="10.00">() override</text>
<text text-anchor="start" x="79" y="-170" font-family="Helvetica,sans-Serif" font-size="10.00">+</text>
<text text-anchor="start" x="92" y="-170" font-family="Helvetica,sans-Serif" font-size="10.00">void set_mode(int pin,</text>
<text text-anchor="start" x="92" y="-159" font-family="Helvetica,sans-Serif" font-size="10.00"> PinDirection direction)</text>
<text text-anchor="start" x="92" y="-148" font-family="Helvetica,sans-Serif" font-size="10.00"> override</text>
<text text-anchor="start" x="79" y="-133" font-family="Helvetica,sans-Serif" font-size="10.00">+</text>
<text text-anchor="start" x="92" y="-133" font-family="Helvetica,sans-Serif" font-size="10.00">void write(int pin,</text>
<text text-anchor="start" x="92" y="-122" font-family="Helvetica,sans-Serif" font-size="10.00"> PinValue value) override</text>
<text text-anchor="start" x="79" y="-107" font-family="Helvetica,sans-Serif" font-size="10.00">+</text>
<text text-anchor="start" x="92" y="-107" font-family="Helvetica,sans-Serif" font-size="10.00">PinValue read(int pin)</text>
<text text-anchor="start" x="92" y="-96" font-family="Helvetica,sans-Serif" font-size="10.00"> override</text>
<text text-anchor="start" x="79" y="-81" font-family="Helvetica,sans-Serif" font-size="10.00">+</text>
<text text-anchor="start" x="92" y="-81" font-family="Helvetica,sans-Serif" font-size="10.00">void set_mode(const</text>
<text text-anchor="start" x="92" y="-70" font-family="Helvetica,sans-Serif" font-size="10.00"> string &amp;pin_name, PinDirection</text>
<text text-anchor="start" x="92" y="-59" font-family="Helvetica,sans-Serif" font-size="10.00"> direction)</text>
<text text-anchor="start" x="79" y="-44" font-family="Helvetica,sans-Serif" font-size="10.00">+</text>
<text text-anchor="start" x="92" y="-44" font-family="Helvetica,sans-Serif" font-size="10.00">void write(const string</text>
<text text-anchor="start" x="92" y="-33" font-family="Helvetica,sans-Serif" font-size="10.00"> &amp;pin_name, PinValue value)</text>
<text text-anchor="start" x="79" y="-18" font-family="Helvetica,sans-Serif" font-size="10.00">+</text>
<text text-anchor="start" x="92" y="-18" font-family="Helvetica,sans-Serif" font-size="10.00">PinValue read(const</text>
<text text-anchor="start" x="92" y="-7" font-family="Helvetica,sans-Serif" font-size="10.00"> string &amp;pin_name)</text>
<polygon fill="#666666" stroke="#666666" points="75,-284 75,-284 251,-284 251,-284 75,-284"/>
<polygon fill="#666666" stroke="#666666" points="75,-269 75,-269 251,-269 251,-269 75,-269"/>
<polygon fill="none" stroke="#666666" points="75,0 75,-312 251,-312 251,0 75,0"/>
</a>
</g>
</g>
<!-- Node2 -->
<g id="Node000002" class="node">
<title>Node2</title>
<g id="a_Node000002"><a xlink:href="classgpio__manager_1_1IGpioDriver.html" target="_top" xlink:title=" ">
<polygon fill="white" stroke="transparent" points="152,-508 0,-508 0,-359 152,-359 152,-508"/>
<text text-anchor="start" x="10" y="-495.5" font-family="Helvetica,sans-Serif" font-size="10.00">gpio_manager::IGpioDriver</text>
<text text-anchor="start" x="74" y="-480.5" font-family="Helvetica,sans-Serif" font-size="10.00"> </text>
<text text-anchor="start" x="4" y="-465.5" font-family="Helvetica,sans-Serif" font-size="10.00">+</text>
<text text-anchor="start" x="17" y="-465.5" font-family="Helvetica,sans-Serif" font-size="10.00">virtual ~IGpioDriver</text>
<text text-anchor="start" x="17" y="-454.5" font-family="Helvetica,sans-Serif" font-size="10.00">()=default</text>
<text text-anchor="start" x="4" y="-439.5" font-family="Helvetica,sans-Serif" font-size="10.00">+</text>
<text text-anchor="start" x="17" y="-439.5" font-family="Helvetica,sans-Serif" font-size="10.00">virtual void set_mode</text>
<text text-anchor="start" x="17" y="-428.5" font-family="Helvetica,sans-Serif" font-size="10.00">(int pin, PinDirection</text>
<text text-anchor="start" x="17" y="-417.5" font-family="Helvetica,sans-Serif" font-size="10.00"> direction)=0</text>
<text text-anchor="start" x="4" y="-402.5" font-family="Helvetica,sans-Serif" font-size="10.00">+</text>
<text text-anchor="start" x="17" y="-402.5" font-family="Helvetica,sans-Serif" font-size="10.00">virtual void write</text>
<text text-anchor="start" x="17" y="-391.5" font-family="Helvetica,sans-Serif" font-size="10.00">(int pin, PinValue value)=0</text>
<text text-anchor="start" x="4" y="-376.5" font-family="Helvetica,sans-Serif" font-size="10.00">+</text>
<text text-anchor="start" x="17" y="-376.5" font-family="Helvetica,sans-Serif" font-size="10.00">virtual PinValue read</text>
<text text-anchor="start" x="17" y="-365.5" font-family="Helvetica,sans-Serif" font-size="10.00">(int pin)=0</text>
<polygon fill="#666666" stroke="#666666" points="0,-490.5 0,-490.5 152,-490.5 152,-490.5 0,-490.5"/>
<polygon fill="#666666" stroke="#666666" points="0,-475.5 0,-475.5 152,-475.5 152,-475.5 0,-475.5"/>
<polygon fill="none" stroke="#666666" points="0,-359 0,-508 152,-508 152,-359 0,-359"/>
</a>
</g>
</g>
<!-- Node2&#45;&gt;Node1 -->
<g id="edge1_Node000001_Node000002" class="edge">
<title>Node2&#45;&gt;Node1</title>
<g id="a_edge1_Node000001_Node000002"><a xlink:title=" ">
<path fill="none" stroke="#63b8ff" d="M102.39,-348.93C106.11,-337.15 110.03,-324.75 114.01,-312.14"/>
<polygon fill="none" stroke="#63b8ff" points="98.99,-348.08 99.31,-358.67 105.66,-350.19 98.99,-348.08"/>
</a>
</g>
</g>
<!-- Node3 -->
<g id="Node000003" class="node">
<title>Node3</title>
<g id="a_Node000003"><a xlink:href="classgpio__manager_1_1IGpioNamedDriver.html" target="_top" xlink:title=" ">
<polygon fill="white" stroke="transparent" points="329.5,-519 170.5,-519 170.5,-348 329.5,-348 329.5,-519"/>
<text text-anchor="start" x="182" y="-506.5" font-family="Helvetica,sans-Serif" font-size="10.00">gpio_manager::IGpioNamed</text>
<text text-anchor="start" x="235" y="-495.5" font-family="Helvetica,sans-Serif" font-size="10.00">Driver</text>
<text text-anchor="start" x="248.5" y="-480.5" font-family="Helvetica,sans-Serif" font-size="10.00"> </text>
<text text-anchor="start" x="175" y="-465.5" font-family="Helvetica,sans-Serif" font-size="10.00">+</text>
<text text-anchor="start" x="188" y="-465.5" font-family="Helvetica,sans-Serif" font-size="10.00">virtual ~IGpioNamedDriver</text>
<text text-anchor="start" x="188" y="-454.5" font-family="Helvetica,sans-Serif" font-size="10.00">()=default</text>
<text text-anchor="start" x="175" y="-439.5" font-family="Helvetica,sans-Serif" font-size="10.00">+</text>
<text text-anchor="start" x="188" y="-439.5" font-family="Helvetica,sans-Serif" font-size="10.00">virtual void set_mode</text>
<text text-anchor="start" x="188" y="-428.5" font-family="Helvetica,sans-Serif" font-size="10.00">(const string &amp;pin_name,</text>
<text text-anchor="start" x="188" y="-417.5" font-family="Helvetica,sans-Serif" font-size="10.00"> PinDirection mode)=0</text>
<text text-anchor="start" x="175" y="-402.5" font-family="Helvetica,sans-Serif" font-size="10.00">+</text>
<text text-anchor="start" x="188" y="-402.5" font-family="Helvetica,sans-Serif" font-size="10.00">virtual void write</text>
<text text-anchor="start" x="188" y="-391.5" font-family="Helvetica,sans-Serif" font-size="10.00">(const string &amp;pin_name,</text>
<text text-anchor="start" x="188" y="-380.5" font-family="Helvetica,sans-Serif" font-size="10.00"> PinValue value)=0</text>
<text text-anchor="start" x="175" y="-365.5" font-family="Helvetica,sans-Serif" font-size="10.00">+</text>
<text text-anchor="start" x="188" y="-365.5" font-family="Helvetica,sans-Serif" font-size="10.00">virtual PinValue read</text>
<text text-anchor="start" x="188" y="-354.5" font-family="Helvetica,sans-Serif" font-size="10.00">(const string &amp;pin_name)=0</text>
<polygon fill="#666666" stroke="#666666" points="171,-490.5 171,-490.5 330,-490.5 330,-490.5 171,-490.5"/>
<polygon fill="#666666" stroke="#666666" points="171,-475.5 171,-475.5 330,-475.5 330,-475.5 171,-475.5"/>
<polygon fill="none" stroke="#666666" points="170.5,-348 170.5,-519 329.5,-519 329.5,-348 170.5,-348"/>
</a>
</g>
</g>
<!-- Node3&#45;&gt;Node1 -->
<g id="edge2_Node000001_Node000003" class="edge">
<title>Node3&#45;&gt;Node1</title>
<g id="a_edge2_Node000001_Node000003"><a xlink:title=" ">
<path fill="none" stroke="#63b8ff" d="M220.21,-338.16C217.54,-329.71 214.79,-321.01 212.02,-312.22"/>
<polygon fill="none" stroke="#63b8ff" points="216.96,-339.49 223.31,-347.97 223.63,-337.38 216.96,-339.49"/>
</a>
</g>
</g>
</g>
</svg>
