<?xml version="1.0" encoding="UTF-8" standalone="no"?>
<!DOCTYPE svg PUBLIC "-//W3C//DTD SVG 1.1//EN"
 "http://www.w3.org/Graphics/SVG/1.1/DTD/svg11.dtd">
<!-- Generated by graphviz version 2.43.0 (0)
 -->
<!-- Title: gpio_manager::IGpioNamedDriver Pages: 1 -->
<svg width="167pt" height="179pt"
 viewBox="0.00 0.00 167.00 179.00" xmlns="http://www.w3.org/2000/svg" xmlns:xlink="http://www.w3.org/1999/xlink">
<g id="graph0" class="graph" transform="scale(1 1) rotate(0) translate(4 175)">
<title>gpio_manager::IGpioNamedDriver</title>
<!-- Node1 -->
<g id="Node000001" class="node">
<title>Node1</title>
<g id="a_Node000001"><a xlink:title=" ">
<polygon fill="#999999" stroke="transparent" points="159,-171 0,-171 0,0 159,0 159,-171"/>
<text text-anchor="start" x="11.5" y="-158.5" font-family="Helvetica,sans-Serif" font-size="10.00">gpio_manager::IGpioNamed</text>
<text text-anchor="start" x="64.5" y="-147.5" font-family="Helvetica,sans-Serif" font-size="10.00">Driver</text>
<text text-anchor="start" x="78" y="-132.5" font-family="Helvetica,sans-Serif" font-size="10.00"> </text>
<text text-anchor="start" x="4.5" y="-117.5" font-family="Helvetica,sans-Serif" font-size="10.00">+</text>
<text text-anchor="start" x="17.5" y="-117.5" font-family="Helvetica,sans-Serif" font-size="10.00">virtual ~IGpioNamedDriver</text>
<text text-anchor="start" x="17.5" y="-106.5" font-family="Helvetica,sans-Serif" font-size="10.00">()=default</text>
<text text-anchor="start" x="4.5" y="-91.5" font-family="Helvetica,sans-Serif" font-size="10.00">+</text>
<text text-anchor="start" x="17.5" y="-91.5" font-family="Helvetica,sans-Serif" font-size="10.00">virtual void set_mode</text>
<text text-anchor="start" x="17.5" y="-80.5" font-family="Helvetica,sans-Serif" font-size="10.00">(const string &amp;pin_name,</text>
<text text-anchor="start" x="17.5" y="-69.5" font-family="Helvetica,sans-Serif" font-size="10.00"> PinDirection mode)=0</text>
<text text-anchor="start" x="4.5" y="-54.5" font-family="Helvetica,sans-Serif" font-size="10.00">+</text>
<text text-anchor="start" x="17.5" y="-54.5" font-family="Helvetica,sans-Serif" font-size="10.00">virtual void write</text>
<text text-anchor="start" x="17.5" y="-43.5" font-family="Helvetica,sans-Serif" font-size="10.00">(const string &amp;pin_name,</text>
<text text-anchor="start" x="17.5" y="-32.5" font-family="Helvetica,sans-Serif" font-size="10.00"> PinValue value)=0</text>
<text text-anchor="start" x="4.5" y="-17.5" font-family="Helvetica,sans-Serif" font-size="10.00">+</text>
<text text-anchor="start" x="17.5" y="-17.5" font-family="Helvetica,sans-Serif" font-size="10.00">virtual PinValue read</text>
<text text-anchor="start" x="17.5" y="-6.5" font-family="Helvetica,sans-Serif" font-size="10.00">(const string &amp;pin_name)=0</text>
<polygon fill="#666666" stroke="#666666" points="0.5,-142.5 0.5,-142.5 159.5,-142.5 159.5,-142.5 0.5,-142.5"/>
<polygon fill="#666666" stroke="#666666" points="0.5,-127.5 0.5,-127.5 159.5,-127.5 159.5,-127.5 0.5,-127.5"/>
<polygon fill="none" stroke="#666666" points="0,0 0,-171 159,-171 159,0 0,0"/>
</a>
</g>
</g>
</g>
</svg>
