<?xml version="1.0" encoding="UTF-8" standalone="no"?>
<!DOCTYPE svg PUBLIC "-//W3C//DTD SVG 1.1//EN"
 "http://www.w3.org/Graphics/SVG/1.1/DTD/svg11.dtd">
<!-- Generated by graphviz version 2.43.0 (0)
 -->
<!-- Title: src/factory_linux.cpp Pages: 1 -->
<svg width="604pt" height="280pt"
 viewBox="0.00 0.00 603.50 280.00" xmlns="http://www.w3.org/2000/svg" xmlns:xlink="http://www.w3.org/1999/xlink">
<g id="graph0" class="graph" transform="scale(1 1) rotate(0) translate(4 276)">
<title>src/factory_linux.cpp</title>
<!-- Node1 -->
<g id="Node000001" class="node">
<title>Node1</title>
<g id="a_Node000001"><a xlink:title=" ">
<polygon fill="#999999" stroke="#666666" points="251,-272 133,-272 133,-253 251,-253 251,-272"/>
<text text-anchor="middle" x="192" y="-260" font-family="Helvetica,sans-Serif" font-size="10.00">src/factory_linux.cpp</text>
</a>
</g>
</g>
<!-- Node2 -->
<g id="Node000002" class="node">
<title>Node2</title>
<g id="a_Node000002"><a xlink:href="libgpio__manager_8hpp.html" target="_top" xlink:title=" ">
<polygon fill="white" stroke="#666666" points="212,-217 78,-217 78,-187 212,-187 212,-217"/>
<text text-anchor="start" x="86" y="-205" font-family="Helvetica,sans-Serif" font-size="10.00">../include/gpio_manager</text>
<text text-anchor="middle" x="145" y="-194" font-family="Helvetica,sans-Serif" font-size="10.00">/libgpio_manager.hpp</text>
</a>
</g>
</g>
<!-- Node1&#45;&gt;Node2 -->
<g id="edge1_Node000001_Node000002" class="edge">
<title>Node1&#45;&gt;Node2</title>
<g id="a_edge1_Node000001_Node000002"><a xlink:title=" ">
<path fill="none" stroke="#63b8ff" d="M185.06,-252.87C179.22,-245.59 170.59,-234.85 162.84,-225.2"/>
<polygon fill="#63b8ff" stroke="#63b8ff" points="165.33,-222.72 156.34,-217.11 159.87,-227.1 165.33,-222.72"/>
</a>
</g>
</g>
<!-- Node9 -->
<g id="Node000009" class="node">
<title>Node9</title>
<g id="a_Node000009"><a xlink:href="linux__gpiod__driver_8hpp.html" target="_top" xlink:title=" ">
<polygon fill="white" stroke="#666666" points="420.5,-151 253.5,-151 253.5,-121 420.5,-121 420.5,-151"/>
<text text-anchor="start" x="261.5" y="-139" font-family="Helvetica,sans-Serif" font-size="10.00">../include/gpio_manager</text>
<text text-anchor="middle" x="337" y="-128" font-family="Helvetica,sans-Serif" font-size="10.00">/drivers/linux_gpiod_driver.hpp</text>
</a>
</g>
</g>
<!-- Node1&#45;&gt;Node9 -->
<g id="edge10_Node000001_Node000009" class="edge">
<title>Node1&#45;&gt;Node9</title>
<g id="a_edge10_Node000001_Node000009"><a xlink:title=" ">
<path fill="none" stroke="#63b8ff" d="M201.97,-252.94C224.62,-233.49 280.5,-185.51 312.83,-157.75"/>
<polygon fill="#63b8ff" stroke="#63b8ff" points="315.2,-160.33 320.51,-151.16 310.64,-155.02 315.2,-160.33"/>
</a>
</g>
</g>
<!-- Node3 -->
<g id="Node000003" class="node">
<title>Node3</title>
<g id="a_Node000003"><a xlink:title=" ">
<polygon fill="#e0e0e0" stroke="#999999" points="58,-79.5 0,-79.5 0,-60.5 58,-60.5 58,-79.5"/>
<text text-anchor="middle" x="29" y="-67.5" font-family="Helvetica,sans-Serif" font-size="10.00">memory</text>
</a>
</g>
</g>
<!-- Node2&#45;&gt;Node3 -->
<g id="edge2_Node000002_Node000003" class="edge">
<title>Node2&#45;&gt;Node3</title>
<g id="a_edge2_Node000002_Node000003"><a xlink:title=" ">
<path fill="none" stroke="#63b8ff" d="M132.37,-186.84C110.74,-162.6 66.73,-113.28 43.73,-87.51"/>
<polygon fill="#63b8ff" stroke="#63b8ff" points="46.08,-84.88 36.81,-79.75 40.85,-89.54 46.08,-84.88"/>
</a>
</g>
</g>
<!-- Node4 -->
<g id="Node000004" class="node">
<title>Node4</title>
<g id="a_Node000004"><a xlink:href="gpio_8hpp.html" target="_top" xlink:title=" ">
<polygon fill="white" stroke="#666666" points="174.5,-145.5 115.5,-145.5 115.5,-126.5 174.5,-126.5 174.5,-145.5"/>
<text text-anchor="middle" x="145" y="-133.5" font-family="Helvetica,sans-Serif" font-size="10.00">gpio.hpp</text>
</a>
</g>
</g>
<!-- Node2&#45;&gt;Node4 -->
<g id="edge3_Node000002_Node000004" class="edge">
<title>Node2&#45;&gt;Node4</title>
<g id="a_edge3_Node000002_Node000004"><a xlink:title=" ">
<path fill="none" stroke="#63b8ff" d="M145,-186.8C145,-177.7 145,-165.79 145,-155.9"/>
<polygon fill="#63b8ff" stroke="#63b8ff" points="148.5,-155.84 145,-145.84 141.5,-155.84 148.5,-155.84"/>
</a>
</g>
</g>
<!-- Node4&#45;&gt;Node3 -->
<g id="edge4_Node000004_Node000003" class="edge">
<title>Node4&#45;&gt;Node3</title>
<g id="a_edge4_Node000004_Node000003"><a xlink:title=" ">
<path fill="none" stroke="#63b8ff" d="M129.36,-126.37C109.9,-115.63 76.45,-97.18 53.56,-84.55"/>
<polygon fill="#63b8ff" stroke="#63b8ff" points="55.21,-81.47 44.77,-79.7 51.83,-87.59 55.21,-81.47"/>
</a>
</g>
</g>
<!-- Node5 -->
<g id="Node000005" class="node">
<title>Node5</title>
<g id="a_Node000005"><a xlink:href="igpio__driver_8hpp.html" target="_top" xlink:title=" ">
<polygon fill="white" stroke="#666666" points="213.5,-79.5 76.5,-79.5 76.5,-60.5 213.5,-60.5 213.5,-79.5"/>
<text text-anchor="middle" x="145" y="-67.5" font-family="Helvetica,sans-Serif" font-size="10.00">./drivers/igpio_driver.hpp</text>
</a>
</g>
</g>
<!-- Node4&#45;&gt;Node5 -->
<g id="edge5_Node000004_Node000005" class="edge">
<title>Node4&#45;&gt;Node5</title>
<g id="a_edge5_Node000004_Node000005"><a xlink:title=" ">
<path fill="none" stroke="#63b8ff" d="M145,-126.37C145,-117.16 145,-102.29 145,-90.27"/>
<polygon fill="#63b8ff" stroke="#63b8ff" points="148.5,-89.91 145,-79.91 141.5,-89.91 148.5,-89.91"/>
</a>
</g>
</g>
<!-- Node7 -->
<g id="Node000007" class="node">
<title>Node7</title>
<g id="a_Node000007"><a xlink:href="igpio__named__driver_8hpp.html" target="_top" xlink:title=" ">
<polygon fill="white" stroke="#666666" points="354,-85 232,-85 232,-55 354,-55 354,-85"/>
<text text-anchor="start" x="240" y="-73" font-family="Helvetica,sans-Serif" font-size="10.00">./drivers/igpio_named</text>
<text text-anchor="middle" x="293" y="-62" font-family="Helvetica,sans-Serif" font-size="10.00">_driver.hpp</text>
</a>
</g>
</g>
<!-- Node4&#45;&gt;Node7 -->
<g id="edge7_Node000004_Node000007" class="edge">
<title>Node4&#45;&gt;Node7</title>
<g id="a_edge7_Node000004_Node000007"><a xlink:title=" ">
<path fill="none" stroke="#63b8ff" d="M164.96,-126.37C186.94,-116.87 222.89,-101.32 251.11,-89.11"/>
<polygon fill="#63b8ff" stroke="#63b8ff" points="252.57,-92.3 260.36,-85.12 249.79,-85.87 252.57,-92.3"/>
</a>
</g>
</g>
<!-- Node6 -->
<g id="Node000006" class="node">
<title>Node6</title>
<g id="a_Node000006"><a xlink:href="gpio__types_8hpp.html" target="_top" xlink:title="GPIO Manager Types of pins modes and values.">
<polygon fill="white" stroke="#666666" points="269,-19 169,-19 169,0 269,0 269,-19"/>
<text text-anchor="middle" x="219" y="-7" font-family="Helvetica,sans-Serif" font-size="10.00">../gpio_types.hpp</text>
</a>
</g>
</g>
<!-- Node5&#45;&gt;Node6 -->
<g id="edge6_Node000005_Node000006" class="edge">
<title>Node5&#45;&gt;Node6</title>
<g id="a_edge6_Node000005_Node000006"><a xlink:title=" ">
<path fill="none" stroke="#63b8ff" d="M155.92,-60.37C167.51,-51.21 186.03,-36.56 200.02,-25.51"/>
<polygon fill="#63b8ff" stroke="#63b8ff" points="202.36,-28.11 208.04,-19.17 198.02,-22.62 202.36,-28.11"/>
</a>
</g>
</g>
<!-- Node7&#45;&gt;Node6 -->
<g id="edge9_Node000007_Node000006" class="edge">
<title>Node7&#45;&gt;Node6</title>
<g id="a_edge9_Node000007_Node000006"><a xlink:title=" ">
<path fill="none" stroke="#63b8ff" d="M275.09,-54.84C263.91,-46 249.52,-34.63 238.12,-25.62"/>
<polygon fill="#63b8ff" stroke="#63b8ff" points="240.1,-22.72 230.09,-19.27 235.76,-28.21 240.1,-22.72"/>
</a>
</g>
</g>
<!-- Node8 -->
<g id="Node000008" class="node">
<title>Node8</title>
<g id="a_Node000008"><a xlink:title=" ">
<polygon fill="#e0e0e0" stroke="#999999" points="404,-19 360,-19 360,0 404,0 404,-19"/>
<text text-anchor="middle" x="382" y="-7" font-family="Helvetica,sans-Serif" font-size="10.00">string</text>
</a>
</g>
</g>
<!-- Node7&#45;&gt;Node8 -->
<g id="edge8_Node000007_Node000008" class="edge">
<title>Node7&#45;&gt;Node8</title>
<g id="a_edge8_Node000007_Node000008"><a xlink:title=" ">
<path fill="none" stroke="#63b8ff" d="M314.54,-54.84C328.47,-45.68 346.53,-33.82 360.45,-24.66"/>
<polygon fill="#63b8ff" stroke="#63b8ff" points="362.49,-27.51 368.92,-19.09 358.65,-21.66 362.49,-27.51"/>
</a>
</g>
</g>
<!-- Node9&#45;&gt;Node5 -->
<g id="edge15_Node000009_Node000005" class="edge">
<title>Node9&#45;&gt;Node5</title>
<g id="a_edge15_Node000009_Node000005"><a xlink:title=" ">
<path fill="none" stroke="#63b8ff" d="M294.86,-120.95C260.45,-109.48 212.38,-93.46 180.05,-82.68"/>
<polygon fill="#63b8ff" stroke="#63b8ff" points="181.15,-79.36 170.55,-79.52 178.93,-86 181.15,-79.36"/>
</a>
</g>
</g>
<!-- Node9&#45;&gt;Node7 -->
<g id="edge16_Node000009_Node000007" class="edge">
<title>Node9&#45;&gt;Node7</title>
<g id="a_edge16_Node000009_Node000007"><a xlink:title=" ">
<path fill="none" stroke="#63b8ff" d="M327.23,-120.8C321.71,-112.76 314.67,-102.53 308.42,-93.43"/>
<polygon fill="#63b8ff" stroke="#63b8ff" points="311.29,-91.42 302.74,-85.16 305.52,-95.39 311.29,-91.42"/>
</a>
</g>
</g>
<!-- Node9&#45;&gt;Node8 -->
<g id="edge11_Node000009_Node000008" class="edge">
<title>Node9&#45;&gt;Node8</title>
<g id="a_edge11_Node000009_Node000008"><a xlink:title=" ">
<path fill="none" stroke="#63b8ff" d="M345.41,-120.96C351.01,-111.16 358.19,-97.61 363,-85 369.98,-66.72 375.2,-44.94 378.38,-29.66"/>
<polygon fill="#63b8ff" stroke="#63b8ff" points="381.9,-29.91 380.41,-19.42 375.03,-28.55 381.9,-29.91"/>
</a>
</g>
</g>
<!-- Node10 -->
<g id="Node000010" class="node">
<title>Node10</title>
<g id="a_Node000010"><a xlink:title=" ">
<polygon fill="#e0e0e0" stroke="#999999" points="595.5,-79.5 502.5,-79.5 502.5,-60.5 595.5,-60.5 595.5,-79.5"/>
<text text-anchor="middle" x="549" y="-67.5" font-family="Helvetica,sans-Serif" font-size="10.00">unordered_map</text>
</a>
</g>
</g>
<!-- Node9&#45;&gt;Node10 -->
<g id="edge12_Node000009_Node000010" class="edge">
<title>Node9&#45;&gt;Node10</title>
<g id="a_edge12_Node000009_Node000010"><a xlink:title=" ">
<path fill="none" stroke="#63b8ff" d="M383.52,-120.95C421.69,-109.43 475.05,-93.32 510.76,-82.54"/>
<polygon fill="#63b8ff" stroke="#63b8ff" points="512.22,-85.76 520.79,-79.52 510.2,-79.06 512.22,-85.76"/>
</a>
</g>
</g>
<!-- Node11 -->
<g id="Node000011" class="node">
<title>Node11</title>
<g id="a_Node000011"><a xlink:href="board_8hpp.html" target="_top" xlink:title=" ">
<polygon fill="white" stroke="#666666" points="484,-79.5 410,-79.5 410,-60.5 484,-60.5 484,-79.5"/>
<text text-anchor="middle" x="447" y="-67.5" font-family="Helvetica,sans-Serif" font-size="10.00">../board.hpp</text>
</a>
</g>
</g>
<!-- Node9&#45;&gt;Node11 -->
<g id="edge13_Node000009_Node000011" class="edge">
<title>Node9&#45;&gt;Node11</title>
<g id="a_edge13_Node000009_Node000011"><a xlink:title=" ">
<path fill="none" stroke="#63b8ff" d="M361.14,-120.95C379.67,-110.18 405.1,-95.38 423.47,-84.69"/>
<polygon fill="#63b8ff" stroke="#63b8ff" points="425.48,-87.57 432.36,-79.52 421.96,-81.52 425.48,-87.57"/>
</a>
</g>
</g>
<!-- Node11&#45;&gt;Node8 -->
<g id="edge14_Node000011_Node000008" class="edge">
<title>Node11&#45;&gt;Node8</title>
<g id="a_edge14_Node000011_Node000008"><a xlink:title=" ">
<path fill="none" stroke="#63b8ff" d="M437.41,-60.37C427.42,-51.38 411.57,-37.11 399.37,-26.14"/>
<polygon fill="#63b8ff" stroke="#63b8ff" points="401.4,-23.26 391.63,-19.17 396.72,-28.46 401.4,-23.26"/>
</a>
</g>
</g>
</g>
</svg>
