<?xml version="1.0" encoding="UTF-8" standalone="no"?>
<!DOCTYPE svg PUBLIC "-//W3C//DTD SVG 1.1//EN"
 "http://www.w3.org/Graphics/SVG/1.1/DTD/svg11.dtd">
<!-- Generated by graphviz version 2.43.0 (0)
 -->
<!-- Title: src/c_api/gpio_c_api.cpp Pages: 1 -->
<svg width="501pt" height="291pt"
 viewBox="0.00 0.00 501.00 291.00" xmlns="http://www.w3.org/2000/svg" xmlns:xlink="http://www.w3.org/1999/xlink">
<g id="graph0" class="graph" transform="scale(1 1) rotate(0) translate(4 287)">
<title>src/c_api/gpio_c_api.cpp</title>
<!-- Node1 -->
<g id="Node000001" class="node">
<title>Node1</title>
<g id="a_Node000001"><a xlink:title=" ">
<polygon fill="#999999" stroke="#666666" points="310.5,-283 176.5,-283 176.5,-264 310.5,-264 310.5,-283"/>
<text text-anchor="middle" x="243.5" y="-271" font-family="Helvetica,sans-Serif" font-size="10.00">src/c_api/gpio_c_api.cpp</text>
</a>
</g>
</g>
<!-- Node2 -->
<g id="Node000002" class="node">
<title>Node2</title>
<g id="a_Node000002"><a xlink:href="gpio_8hpp.html" target="_top" xlink:title=" ">
<polygon fill="white" stroke="#666666" points="271.5,-151 161.5,-151 161.5,-121 271.5,-121 271.5,-151"/>
<text text-anchor="start" x="169.5" y="-139" font-family="Helvetica,sans-Serif" font-size="10.00">../../include/gpio</text>
<text text-anchor="middle" x="216.5" y="-128" font-family="Helvetica,sans-Serif" font-size="10.00">_manager/gpio.hpp</text>
</a>
</g>
</g>
<!-- Node1&#45;&gt;Node2 -->
<g id="edge1_Node000001_Node000002" class="edge">
<title>Node1&#45;&gt;Node2</title>
<g id="a_edge1_Node000001_Node000002"><a xlink:title=" ">
<path fill="none" stroke="#63b8ff" d="M176.49,-269.86C146.4,-264.9 113.45,-253.44 94.5,-228 83.61,-213.39 84.35,-202.13 94.5,-187 107.61,-167.46 129.86,-155.55 151.8,-148.3"/>
<polygon fill="#63b8ff" stroke="#63b8ff" points="152.92,-151.61 161.48,-145.37 150.9,-144.91 152.92,-151.61"/>
</a>
</g>
</g>
<!-- Node8 -->
<g id="Node000008" class="node">
<title>Node8</title>
<g id="a_Node000008"><a xlink:href="gpio__c__api_8h.html" target="_top" xlink:title=" ">
<polygon fill="white" stroke="#666666" points="221.5,-228 103.5,-228 103.5,-187 221.5,-187 221.5,-228"/>
<text text-anchor="start" x="111.5" y="-216" font-family="Helvetica,sans-Serif" font-size="10.00">../../include/gpio</text>
<text text-anchor="start" x="111.5" y="-205" font-family="Helvetica,sans-Serif" font-size="10.00">_manager/c_api/gpio</text>
<text text-anchor="middle" x="162.5" y="-194" font-family="Helvetica,sans-Serif" font-size="10.00">_c_api.h</text>
</a>
</g>
</g>
<!-- Node1&#45;&gt;Node8 -->
<g id="edge8_Node000001_Node000008" class="edge">
<title>Node1&#45;&gt;Node8</title>
<g id="a_edge8_Node000001_Node000008"><a xlink:title=" ">
<path fill="none" stroke="#63b8ff" d="M232.58,-263.87C222.99,-256.3 208.55,-244.89 195.26,-234.39"/>
<polygon fill="#63b8ff" stroke="#63b8ff" points="197.21,-231.46 187.19,-228.01 192.87,-236.95 197.21,-231.46"/>
</a>
</g>
</g>
<!-- Node9 -->
<g id="Node000009" class="node">
<title>Node9</title>
<g id="a_Node000009"><a xlink:href="libgpio__manager_8hpp.html" target="_top" xlink:title=" ">
<polygon fill="white" stroke="#666666" points="409.5,-222.5 239.5,-222.5 239.5,-192.5 409.5,-192.5 409.5,-222.5"/>
<text text-anchor="start" x="247.5" y="-210.5" font-family="Helvetica,sans-Serif" font-size="10.00">../../include/gpio</text>
<text text-anchor="middle" x="324.5" y="-199.5" font-family="Helvetica,sans-Serif" font-size="10.00">_manager/libgpio_manager.hpp</text>
</a>
</g>
</g>
<!-- Node1&#45;&gt;Node9 -->
<g id="edge9_Node000001_Node000009" class="edge">
<title>Node1&#45;&gt;Node9</title>
<g id="a_edge9_Node000001_Node000009"><a xlink:title=" ">
<path fill="none" stroke="#63b8ff" d="M254.42,-263.87C265.72,-254.94 283.76,-240.69 298.71,-228.88"/>
<polygon fill="#63b8ff" stroke="#63b8ff" points="300.96,-231.56 306.63,-222.62 296.62,-226.07 300.96,-231.56"/>
</a>
</g>
</g>
<!-- Node10 -->
<g id="Node000010" class="node">
<title>Node10</title>
<g id="a_Node000010"><a xlink:title=" ">
<polygon fill="#e0e0e0" stroke="#999999" points="493,-217 428,-217 428,-198 493,-198 493,-217"/>
<text text-anchor="middle" x="460.5" y="-205" font-family="Helvetica,sans-Serif" font-size="10.00">exception</text>
</a>
</g>
</g>
<!-- Node1&#45;&gt;Node10 -->
<g id="edge12_Node000001_Node000010" class="edge">
<title>Node1&#45;&gt;Node10</title>
<g id="a_edge12_Node000001_Node000010"><a xlink:title=" ">
<path fill="none" stroke="#63b8ff" d="M286.24,-263.96C322.08,-256.25 374.35,-243.71 418.5,-228 423.9,-226.08 429.54,-223.72 434.88,-221.31"/>
<polygon fill="#63b8ff" stroke="#63b8ff" points="436.48,-224.43 444.04,-217.01 433.5,-218.09 436.48,-224.43"/>
</a>
</g>
</g>
<!-- Node3 -->
<g id="Node000003" class="node">
<title>Node3</title>
<g id="a_Node000003"><a xlink:title=" ">
<polygon fill="#e0e0e0" stroke="#999999" points="353.5,-79.5 295.5,-79.5 295.5,-60.5 353.5,-60.5 353.5,-79.5"/>
<text text-anchor="middle" x="324.5" y="-67.5" font-family="Helvetica,sans-Serif" font-size="10.00">memory</text>
</a>
</g>
</g>
<!-- Node2&#45;&gt;Node3 -->
<g id="edge2_Node000002_Node000003" class="edge">
<title>Node2&#45;&gt;Node3</title>
<g id="a_edge2_Node000002_Node000003"><a xlink:title=" ">
<path fill="none" stroke="#63b8ff" d="M240.2,-120.95C258.39,-110.18 283.36,-95.38 301.4,-84.69"/>
<polygon fill="#63b8ff" stroke="#63b8ff" points="303.31,-87.63 310.13,-79.52 299.74,-81.6 303.31,-87.63"/>
</a>
</g>
</g>
<!-- Node4 -->
<g id="Node000004" class="node">
<title>Node4</title>
<g id="a_Node000004"><a xlink:href="igpio__driver_8hpp.html" target="_top" xlink:title=" ">
<polygon fill="white" stroke="#666666" points="137,-79.5 0,-79.5 0,-60.5 137,-60.5 137,-79.5"/>
<text text-anchor="middle" x="68.5" y="-67.5" font-family="Helvetica,sans-Serif" font-size="10.00">./drivers/igpio_driver.hpp</text>
</a>
</g>
</g>
<!-- Node2&#45;&gt;Node4 -->
<g id="edge3_Node000002_Node000004" class="edge">
<title>Node2&#45;&gt;Node4</title>
<g id="a_edge3_Node000002_Node000004"><a xlink:title=" ">
<path fill="none" stroke="#63b8ff" d="M184.02,-120.95C158.18,-109.78 122.35,-94.29 97.47,-83.53"/>
<polygon fill="#63b8ff" stroke="#63b8ff" points="98.76,-80.27 88.2,-79.52 95.99,-86.7 98.76,-80.27"/>
</a>
</g>
</g>
<!-- Node6 -->
<g id="Node000006" class="node">
<title>Node6</title>
<g id="a_Node000006"><a xlink:href="igpio__named__driver_8hpp.html" target="_top" xlink:title=" ">
<polygon fill="white" stroke="#666666" points="277.5,-85 155.5,-85 155.5,-55 277.5,-55 277.5,-85"/>
<text text-anchor="start" x="163.5" y="-73" font-family="Helvetica,sans-Serif" font-size="10.00">./drivers/igpio_named</text>
<text text-anchor="middle" x="216.5" y="-62" font-family="Helvetica,sans-Serif" font-size="10.00">_driver.hpp</text>
</a>
</g>
</g>
<!-- Node2&#45;&gt;Node6 -->
<g id="edge5_Node000002_Node000006" class="edge">
<title>Node2&#45;&gt;Node6</title>
<g id="a_edge5_Node000002_Node000006"><a xlink:title=" ">
<path fill="none" stroke="#63b8ff" d="M216.5,-120.8C216.5,-113.34 216.5,-103.99 216.5,-95.41"/>
<polygon fill="#63b8ff" stroke="#63b8ff" points="220,-95.16 216.5,-85.16 213,-95.16 220,-95.16"/>
</a>
</g>
</g>
<!-- Node5 -->
<g id="Node000005" class="node">
<title>Node5</title>
<g id="a_Node000005"><a xlink:href="gpio__types_8hpp.html" target="_top" xlink:title="GPIO Manager Types of pins modes and values.">
<polygon fill="white" stroke="#666666" points="147.5,-19 47.5,-19 47.5,0 147.5,0 147.5,-19"/>
<text text-anchor="middle" x="97.5" y="-7" font-family="Helvetica,sans-Serif" font-size="10.00">../gpio_types.hpp</text>
</a>
</g>
</g>
<!-- Node4&#45;&gt;Node5 -->
<g id="edge4_Node000004_Node000005" class="edge">
<title>Node4&#45;&gt;Node5</title>
<g id="a_edge4_Node000004_Node000005"><a xlink:title=" ">
<path fill="none" stroke="#63b8ff" d="M72.78,-60.37C76.93,-51.99 83.37,-39.01 88.63,-28.39"/>
<polygon fill="#63b8ff" stroke="#63b8ff" points="91.9,-29.68 93.2,-19.17 85.63,-26.57 91.9,-29.68"/>
</a>
</g>
</g>
<!-- Node6&#45;&gt;Node5 -->
<g id="edge7_Node000006_Node000005" class="edge">
<title>Node6&#45;&gt;Node5</title>
<g id="a_edge7_Node000006_Node000005"><a xlink:title=" ">
<path fill="none" stroke="#63b8ff" d="M188,-54.99C168.59,-45.45 143.07,-32.9 124.08,-23.57"/>
<polygon fill="#63b8ff" stroke="#63b8ff" points="125.59,-20.41 115.07,-19.14 122.5,-26.69 125.59,-20.41"/>
</a>
</g>
</g>
<!-- Node7 -->
<g id="Node000007" class="node">
<title>Node7</title>
<g id="a_Node000007"><a xlink:title=" ">
<polygon fill="#e0e0e0" stroke="#999999" points="238.5,-19 194.5,-19 194.5,0 238.5,0 238.5,-19"/>
<text text-anchor="middle" x="216.5" y="-7" font-family="Helvetica,sans-Serif" font-size="10.00">string</text>
</a>
</g>
</g>
<!-- Node6&#45;&gt;Node7 -->
<g id="edge6_Node000006_Node000007" class="edge">
<title>Node6&#45;&gt;Node7</title>
<g id="a_edge6_Node000006_Node000007"><a xlink:title=" ">
<path fill="none" stroke="#63b8ff" d="M216.5,-54.84C216.5,-47.21 216.5,-37.7 216.5,-29.45"/>
<polygon fill="#63b8ff" stroke="#63b8ff" points="220,-29.27 216.5,-19.27 213,-29.27 220,-29.27"/>
</a>
</g>
</g>
<!-- Node9&#45;&gt;Node2 -->
<g id="edge11_Node000009_Node000002" class="edge">
<title>Node9&#45;&gt;Node2</title>
<g id="a_edge11_Node000009_Node000002"><a xlink:title=" ">
<path fill="none" stroke="#63b8ff" d="M302.64,-192.44C286.69,-182.17 264.85,-168.11 247.15,-156.72"/>
<polygon fill="#63b8ff" stroke="#63b8ff" points="248.63,-153.51 238.32,-151.04 244.84,-159.4 248.63,-153.51"/>
</a>
</g>
</g>
<!-- Node9&#45;&gt;Node3 -->
<g id="edge10_Node000009_Node000003" class="edge">
<title>Node9&#45;&gt;Node3</title>
<g id="a_edge10_Node000009_Node000003"><a xlink:title=" ">
<path fill="none" stroke="#63b8ff" d="M324.5,-192.26C324.5,-167.64 324.5,-117.16 324.5,-89.73"/>
<polygon fill="#63b8ff" stroke="#63b8ff" points="328,-89.53 324.5,-79.53 321,-89.53 328,-89.53"/>
</a>
</g>
</g>
</g>
</svg>
