<?xml version="1.0" encoding="UTF-8" standalone="no"?>
<!DOCTYPE svg PUBLIC "-//W3C//DTD SVG 1.1//EN"
 "http://www.w3.org/Graphics/SVG/1.1/DTD/svg11.dtd">
<!-- Generated by graphviz version 2.43.0 (0)
 -->
<!-- Title: include/gpio_manager/drivers/igpio_named_driver.hpp Pages: 1 -->
<svg width="170pt" height="104pt"
 viewBox="0.00 0.00 170.00 104.00" xmlns="http://www.w3.org/2000/svg" xmlns:xlink="http://www.w3.org/1999/xlink">
<g id="graph0" class="graph" transform="scale(1 1) rotate(0) translate(4 100)">
<title>include/gpio_manager/drivers/igpio_named_driver.hpp</title>
<!-- Node1 -->
<g id="Node000001" class="node">
<title>Node1</title>
<g id="a_Node000001"><a xlink:title=" ">
<polygon fill="#999999" stroke="#666666" points="129.5,-96 4.5,-96 4.5,-55 129.5,-55 129.5,-96"/>
<text text-anchor="start" x="12.5" y="-84" font-family="Helvetica,sans-Serif" font-size="10.00">include/gpio_manager</text>
<text text-anchor="start" x="12.5" y="-73" font-family="Helvetica,sans-Serif" font-size="10.00">/drivers/igpio_named</text>
<text text-anchor="middle" x="67" y="-62" font-family="Helvetica,sans-Serif" font-size="10.00">_driver.hpp</text>
</a>
</g>
</g>
<!-- Node2 -->
<g id="Node000002" class="node">
<title>Node2</title>
<g id="a_Node000002"><a xlink:title=" ">
<polygon fill="#e0e0e0" stroke="#999999" points="44,-19 0,-19 0,0 44,0 44,-19"/>
<text text-anchor="middle" x="22" y="-7" font-family="Helvetica,sans-Serif" font-size="10.00">string</text>
</a>
</g>
</g>
<!-- Node1&#45;&gt;Node2 -->
<g id="edge1_Node000001_Node000002" class="edge">
<title>Node1&#45;&gt;Node2</title>
<g id="a_edge1_Node000001_Node000002"><a xlink:title=" ">
<path fill="none" stroke="#63b8ff" d="M53.25,-54.95C47.1,-46.2 39.92,-35.99 33.99,-27.56"/>
<polygon fill="#63b8ff" stroke="#63b8ff" points="36.77,-25.43 28.16,-19.26 31.05,-29.45 36.77,-25.43"/>
</a>
</g>
</g>
<!-- Node3 -->
<g id="Node000003" class="node">
<title>Node3</title>
<g id="a_Node000003"><a xlink:href="gpio__types_8hpp.html" target="_top" xlink:title="GPIO Manager Types of pins modes and values.">
<polygon fill="white" stroke="#666666" points="162,-19 62,-19 62,0 162,0 162,-19"/>
<text text-anchor="middle" x="112" y="-7" font-family="Helvetica,sans-Serif" font-size="10.00">../gpio_types.hpp</text>
</a>
</g>
</g>
<!-- Node1&#45;&gt;Node3 -->
<g id="edge2_Node000001_Node000003" class="edge">
<title>Node1&#45;&gt;Node3</title>
<g id="a_edge2_Node000001_Node000003"><a xlink:title=" ">
<path fill="none" stroke="#63b8ff" d="M80.75,-54.95C86.9,-46.2 94.08,-35.99 100.01,-27.56"/>
<polygon fill="#63b8ff" stroke="#63b8ff" points="102.95,-29.45 105.84,-19.26 97.23,-25.43 102.95,-29.45"/>
</a>
</g>
</g>
</g>
</svg>
