<?xml version="1.0" encoding="UTF-8" standalone="no"?>
<!DOCTYPE svg PUBLIC "-//W3C//DTD SVG 1.1//EN"
 "http://www.w3.org/Graphics/SVG/1.1/DTD/svg11.dtd">
<!-- Generated by graphviz version 2.43.0 (0)
 -->
<!-- Title: Graphical Class Hierarchy Pages: 1 -->
<svg width="344pt" height="76pt"
 viewBox="0.00 0.00 344.00 75.50" xmlns="http://www.w3.org/2000/svg" xmlns:xlink="http://www.w3.org/1999/xlink">
<g id="graph0" class="graph" transform="scale(1 1) rotate(0) translate(4 71.5)">
<title>Graphical Class Hierarchy</title>
<!-- Node0 -->
<g id="Node000000" class="node">
<title>Node0</title>
<g id="a_Node000000"><a xlink:href="classgpio__manager_1_1IGpioDriver.html" target="_top" xlink:title=" ">
<polygon fill="white" stroke="#666666" points="150.5,-67.5 2.5,-67.5 2.5,-48.5 150.5,-48.5 150.5,-67.5"/>
<text text-anchor="middle" x="76.5" y="-55.5" font-family="Helvetica,sans-Serif" font-size="10.00">gpio_manager::IGpioDriver</text>
</a>
</g>
</g>
<!-- Node1 -->
<g id="Node000001" class="node">
<title>Node1</title>
<g id="a_Node000001"><a xlink:href="classgpio__manager_1_1LinuxGpiodDriver.html" target="_top" xlink:title=" ">
<polygon fill="white" stroke="#666666" points="336,-51 189,-51 189,-21 336,-21 336,-51"/>
<text text-anchor="start" x="197" y="-39" font-family="Helvetica,sans-Serif" font-size="10.00">gpio_manager::LinuxGpiod</text>
<text text-anchor="middle" x="262.5" y="-28" font-family="Helvetica,sans-Serif" font-size="10.00">Driver</text>
</a>
</g>
</g>
<!-- Node0&#45;&gt;Node1 -->
<g id="edge1_Node000000_Node000001" class="edge">
<title>Node0&#45;&gt;Node1</title>
<g id="a_edge1_Node000000_Node000001"><a xlink:title=" ">
<path fill="none" stroke="#63b8ff" d="M160.82,-48.04C170.15,-46.92 179.61,-45.79 188.8,-44.69"/>
<polygon fill="#63b8ff" stroke="#63b8ff" points="160.26,-44.58 150.75,-49.24 161.1,-51.53 160.26,-44.58"/>
</a>
</g>
</g>
<!-- Node2 -->
<g id="Node000002" class="node">
<title>Node2</title>
<g id="a_Node000002"><a xlink:href="classgpio__manager_1_1IGpioNamedDriver.html" target="_top" xlink:title=" ">
<polygon fill="white" stroke="#666666" points="153,-30 0,-30 0,0 153,0 153,-30"/>
<text text-anchor="start" x="8" y="-18" font-family="Helvetica,sans-Serif" font-size="10.00">gpio_manager::IGpioNamed</text>
<text text-anchor="middle" x="76.5" y="-7" font-family="Helvetica,sans-Serif" font-size="10.00">Driver</text>
</a>
</g>
</g>
<!-- Node2&#45;&gt;Node1 -->
<g id="edge2_Node000002_Node000001" class="edge">
<title>Node2&#45;&gt;Node1</title>
<g id="a_edge2_Node000002_Node000001"><a xlink:title=" ">
<path fill="none" stroke="#63b8ff" d="M163.16,-24.78C171.74,-25.76 180.4,-26.74 188.83,-27.71"/>
<polygon fill="#63b8ff" stroke="#63b8ff" points="163.47,-21.29 153.14,-23.63 162.67,-28.24 163.47,-21.29"/>
</a>
</g>
</g>
</g>
</svg>
