<?xml version="1.0" encoding="UTF-8" standalone="no"?>
<!DOCTYPE svg PUBLIC "-//W3C//DTD SVG 1.1//EN"
 "http://www.w3.org/Graphics/SVG/1.1/DTD/svg11.dtd">
<!-- Generated by graphviz version 2.43.0 (0)
 -->
<!-- Title: include/gpio_manager/drivers/linux_gpiod_driver.hpp Pages: 1 -->
<svg width="476pt" height="159pt"
 viewBox="0.00 0.00 475.90 159.00" xmlns="http://www.w3.org/2000/svg" xmlns:xlink="http://www.w3.org/1999/xlink">
<g id="graph0" class="graph" transform="scale(1 1) rotate(0) translate(4 155)">
<title>include/gpio_manager/drivers/linux_gpiod_driver.hpp</title>
<!-- Node1 -->
<g id="Node000001" class="node">
<title>Node1</title>
<g id="a_Node000001"><a xlink:title=" ">
<polygon fill="#999999" stroke="#666666" points="227.9,-151 102.9,-151 102.9,-110 227.9,-110 227.9,-151"/>
<text text-anchor="start" x="110.9" y="-139" font-family="Helvetica,sans-Serif" font-size="10.00">include/gpio_manager</text>
<text text-anchor="start" x="110.9" y="-128" font-family="Helvetica,sans-Serif" font-size="10.00">/drivers/linux_gpiod</text>
<text text-anchor="middle" x="165.4" y="-117" font-family="Helvetica,sans-Serif" font-size="10.00">_driver.hpp</text>
</a>
</g>
</g>
<!-- Node2 -->
<g id="Node000002" class="node">
<title>Node2</title>
<g id="a_Node000002"><a xlink:title=" ">
<polygon fill="#e0e0e0" stroke="#999999" points="187.4,-19 143.4,-19 143.4,0 187.4,0 187.4,-19"/>
<text text-anchor="middle" x="165.4" y="-7" font-family="Helvetica,sans-Serif" font-size="10.00">string</text>
</a>
</g>
</g>
<!-- Node1&#45;&gt;Node2 -->
<g id="edge1_Node000001_Node000002" class="edge">
<title>Node1&#45;&gt;Node2</title>
<g id="a_edge1_Node000001_Node000002"><a xlink:title=" ">
<path fill="none" stroke="#63b8ff" d="M102.79,-122.2C46.93,-113.05 -21.85,-93.62 7.4,-55 22.54,-35 91.6,-21.46 133.24,-14.96"/>
<polygon fill="#63b8ff" stroke="#63b8ff" points="133.83,-18.41 143.19,-13.45 132.78,-11.49 133.83,-18.41"/>
</a>
</g>
</g>
<!-- Node3 -->
<g id="Node000003" class="node">
<title>Node3</title>
<g id="a_Node000003"><a xlink:title=" ">
<polygon fill="#e0e0e0" stroke="#999999" points="109.9,-74 16.9,-74 16.9,-55 109.9,-55 109.9,-74"/>
<text text-anchor="middle" x="63.4" y="-62" font-family="Helvetica,sans-Serif" font-size="10.00">unordered_map</text>
</a>
</g>
</g>
<!-- Node1&#45;&gt;Node3 -->
<g id="edge2_Node000001_Node000003" class="edge">
<title>Node1&#45;&gt;Node3</title>
<g id="a_edge2_Node000001_Node000003"><a xlink:title=" ">
<path fill="none" stroke="#63b8ff" d="M134.24,-109.95C118.57,-100.12 99.95,-88.43 85.73,-79.51"/>
<polygon fill="#63b8ff" stroke="#63b8ff" points="87.42,-76.44 77.09,-74.09 83.7,-82.37 87.42,-76.44"/>
</a>
</g>
</g>
<!-- Node4 -->
<g id="Node000004" class="node">
<title>Node4</title>
<g id="a_Node000004"><a xlink:href="board_8hpp.html" target="_top" xlink:title=" ">
<polygon fill="white" stroke="#666666" points="202.4,-74 128.4,-74 128.4,-55 202.4,-55 202.4,-74"/>
<text text-anchor="middle" x="165.4" y="-62" font-family="Helvetica,sans-Serif" font-size="10.00">../board.hpp</text>
</a>
</g>
</g>
<!-- Node1&#45;&gt;Node4 -->
<g id="edge3_Node000001_Node000004" class="edge">
<title>Node1&#45;&gt;Node4</title>
<g id="a_edge3_Node000001_Node000004"><a xlink:title=" ">
<path fill="none" stroke="#63b8ff" d="M165.4,-109.95C165.4,-101.85 165.4,-92.5 165.4,-84.47"/>
<polygon fill="#63b8ff" stroke="#63b8ff" points="168.9,-84.26 165.4,-74.26 161.9,-84.26 168.9,-84.26"/>
</a>
</g>
</g>
<!-- Node5 -->
<g id="Node000005" class="node">
<title>Node5</title>
<g id="a_Node000005"><a xlink:href="igpio__driver_8hpp.html" target="_top" xlink:title=" ">
<polygon fill="white" stroke="#666666" points="467.9,-74 372.9,-74 372.9,-55 467.9,-55 467.9,-74"/>
<text text-anchor="middle" x="420.4" y="-62" font-family="Helvetica,sans-Serif" font-size="10.00">igpio_driver.hpp</text>
</a>
</g>
</g>
<!-- Node1&#45;&gt;Node5 -->
<g id="edge5_Node000001_Node000005" class="edge">
<title>Node1&#45;&gt;Node5</title>
<g id="a_edge5_Node000001_Node000005"><a xlink:title=" ">
<path fill="none" stroke="#63b8ff" d="M228.11,-113.76C274.19,-102.2 335.66,-86.77 376.56,-76.5"/>
<polygon fill="#63b8ff" stroke="#63b8ff" points="377.65,-79.84 386.5,-74.01 375.94,-73.05 377.65,-79.84"/>
</a>
</g>
</g>
<!-- Node7 -->
<g id="Node000007" class="node">
<title>Node7</title>
<g id="a_Node000007"><a xlink:href="igpio__named__driver_8hpp.html" target="_top" xlink:title=" ">
<polygon fill="white" stroke="#666666" points="354.4,-74 220.4,-74 220.4,-55 354.4,-55 354.4,-74"/>
<text text-anchor="middle" x="287.4" y="-62" font-family="Helvetica,sans-Serif" font-size="10.00">igpio_named_driver.hpp</text>
</a>
</g>
</g>
<!-- Node1&#45;&gt;Node7 -->
<g id="edge7_Node000001_Node000007" class="edge">
<title>Node1&#45;&gt;Node7</title>
<g id="a_edge7_Node000001_Node000007"><a xlink:title=" ">
<path fill="none" stroke="#63b8ff" d="M202.67,-109.95C221.94,-99.84 244.96,-87.76 262.14,-78.75"/>
<polygon fill="#63b8ff" stroke="#63b8ff" points="263.79,-81.84 271.02,-74.09 260.54,-75.64 263.79,-81.84"/>
</a>
</g>
</g>
<!-- Node4&#45;&gt;Node2 -->
<g id="edge4_Node000004_Node000002" class="edge">
<title>Node4&#45;&gt;Node2</title>
<g id="a_edge4_Node000004_Node000002"><a xlink:title=" ">
<path fill="none" stroke="#63b8ff" d="M165.4,-54.75C165.4,-47.8 165.4,-37.85 165.4,-29.13"/>
<polygon fill="#63b8ff" stroke="#63b8ff" points="168.9,-29.09 165.4,-19.09 161.9,-29.09 168.9,-29.09"/>
</a>
</g>
</g>
<!-- Node6 -->
<g id="Node000006" class="node">
<title>Node6</title>
<g id="a_Node000006"><a xlink:href="gpio__types_8hpp.html" target="_top" xlink:title="GPIO Manager Types of pins modes and values.">
<polygon fill="white" stroke="#666666" points="403.4,-19 303.4,-19 303.4,0 403.4,0 403.4,-19"/>
<text text-anchor="middle" x="353.4" y="-7" font-family="Helvetica,sans-Serif" font-size="10.00">../gpio_types.hpp</text>
</a>
</g>
</g>
<!-- Node5&#45;&gt;Node6 -->
<g id="edge6_Node000005_Node000006" class="edge">
<title>Node5&#45;&gt;Node6</title>
<g id="a_edge6_Node000005_Node000006"><a xlink:title=" ">
<path fill="none" stroke="#63b8ff" d="M409.63,-54.98C399.63,-47.07 384.51,-35.11 372.47,-25.58"/>
<polygon fill="#63b8ff" stroke="#63b8ff" points="374.37,-22.63 364.36,-19.17 370.03,-28.12 374.37,-22.63"/>
</a>
</g>
</g>
<!-- Node7&#45;&gt;Node2 -->
<g id="edge8_Node000007_Node000002" class="edge">
<title>Node7&#45;&gt;Node2</title>
<g id="a_edge8_Node000007_Node000002"><a xlink:title=" ">
<path fill="none" stroke="#63b8ff" d="M267.8,-54.98C248.08,-46.42 217.45,-33.11 194.82,-23.28"/>
<polygon fill="#63b8ff" stroke="#63b8ff" points="195.92,-19.94 185.36,-19.17 193.13,-26.37 195.92,-19.94"/>
</a>
</g>
</g>
<!-- Node7&#45;&gt;Node6 -->
<g id="edge9_Node000007_Node000006" class="edge">
<title>Node7&#45;&gt;Node6</title>
<g id="a_edge9_Node000007_Node000006"><a xlink:title=" ">
<path fill="none" stroke="#63b8ff" d="M298,-54.98C307.85,-47.07 322.75,-35.11 334.61,-25.58"/>
<polygon fill="#63b8ff" stroke="#63b8ff" points="337,-28.16 342.6,-19.17 332.61,-22.7 337,-28.16"/>
</a>
</g>
</g>
</g>
</svg>
